<?xml version="1.0"?>
<svg id="Layer_1" data-name="Layer 1" xmlns="http://www.w3.org/2000/svg" version="1.1" xmlns:xlink="http://www.w3.org/1999/xlink" viewBox="0 0 500 117.46">
  <defs>
    
    <clipPath id="clippath">
      <rect class="cls-1" width="500" height="117.46"></rect>
    </clipPath>
    <clipPath id="clippath-1">
      <rect class="cls-1" y="0" width="500" height="117.46"></rect>
    </clipPath>
  </defs>
  <g id="Artwork_201" data-name="Artwork 201">
    <g class="cls-6">
      <g class="cls-5">
        <path class="cls-3" d="M26.39,70.49c-.49-1.07-.84-2.88-1.05-5.42-2.88,4.22-6.55,6.33-11.02,6.33s-8.01-1.26-10.53-3.79C1.26,65.1,0,61.54,0,56.95,0,51.9,1.71,47.9,5.14,44.93c3.43-2.97,8.13-4.48,14.09-4.54h5.97v-5.28c0-2.97-.66-5.08-1.97-6.33-1.32-1.26-3.32-1.88-6.01-1.88-2.45,0-4.43.73-5.97,2.18-1.53,1.45-2.29,3.3-2.29,5.53H.82c0-2.54.75-4.96,2.25-7.27,1.5-2.31,3.52-4.12,6.06-5.44,2.54-1.31,5.37-1.97,8.49-1.97,5.08,0,8.94,1.26,11.59,3.79s4,6.2,4.06,11.04v25.06c.03,3.83.55,7.15,1.56,9.96v.74h-8.44ZM15.56,64.02c1.99,0,3.89-.55,5.69-1.65,1.81-1.1,3.12-2.48,3.95-4.13v-11.84h-4.59c-3.85.06-6.9.92-9.13,2.59-2.23,1.67-3.35,4-3.35,7,0,2.82.56,4.86,1.7,6.13,1.13,1.27,3.05,1.9,5.74,1.9"></path>
        <path class="cls-3" d="M77.13,48.05c0,7.74-1.39,13.57-4.17,17.49-2.79,3.92-6.82,5.87-12.12,5.87s-9.21-2.26-11.84-6.79l-.41,5.87h-7.39V0h8.08v26.3c2.66-4.25,6.49-6.38,11.47-6.38,5.45,0,9.53,1.93,12.25,5.78,2.72,3.86,4.1,9.67,4.13,17.44v4.91ZM69.05,43.39c0-5.87-.82-10.05-2.46-12.54-1.64-2.49-4.29-3.73-7.96-3.73-4.19,0-7.31,2.26-9.36,6.78v23.6c2.02,4.46,5.17,6.69,9.46,6.69,3.67,0,6.3-1.28,7.89-3.85,1.59-2.57,2.4-6.55,2.43-11.96v-5Z"></path>
        <path class="cls-3" d="M106.94,57.78c0-1.75-.66-3.24-1.97-4.5-1.32-1.26-3.86-2.72-7.62-4.41-4.38-1.8-7.46-3.35-9.25-4.64s-3.13-2.74-4.02-4.38c-.89-1.63-1.33-3.59-1.33-5.85,0-4.04,1.48-7.4,4.43-10.07,2.95-2.68,6.72-4.02,11.31-4.02,4.83,0,8.72,1.41,11.65,4.22,2.94,2.82,4.41,6.43,4.41,10.83h-8.08c0-2.23-.75-4.14-2.25-5.71-1.5-1.58-3.41-2.36-5.73-2.36s-4.26.62-5.62,1.86c-1.36,1.24-2.04,2.89-2.04,4.96,0,1.65.5,2.97,1.49,3.98.99,1.01,3.39,2.33,7.18,3.98,6.03,2.36,10.13,4.66,12.3,6.92,2.17,2.25,3.26,5.11,3.26,8.57,0,4.32-1.48,7.78-4.45,10.37-2.97,2.59-6.94,3.88-11.93,3.88s-9.36-1.48-12.57-4.45c-3.21-2.97-4.82-6.73-4.82-11.29h8.17c.09,2.75.93,4.91,2.52,6.47,1.59,1.56,3.82,2.34,6.7,2.34,2.69,0,4.74-.6,6.15-1.81,1.41-1.21,2.11-2.84,2.11-4.89"></path>
        <path class="cls-3" d="M119.22,43.37c0-7.22,1.75-12.93,5.25-17.14,3.5-4.21,8.13-6.31,13.88-6.31s10.38,2.05,13.88,6.15c3.5,4.1,5.3,9.68,5.39,16.75v5.23c0,7.19-1.75,12.88-5.23,17.07s-8.14,6.29-13.95,6.29-10.36-2.03-13.84-6.1c-3.47-4.07-5.27-9.58-5.39-16.52v-5.41ZM127.34,48.05c0,5.11,1,9.12,3.01,12.05,2,2.92,4.7,4.38,8.1,4.38,7.16,0,10.84-5.17,11.06-15.51v-5.6c0-5.08-1.01-9.1-3.03-12.05-2.02-2.95-4.73-4.43-8.12-4.43s-6.01,1.48-8.01,4.43c-2,2.95-3.01,6.95-3.01,12v4.73Z"></path>
        <path class="cls-3" d="M183.91,28.45c-1.13-.21-2.35-.32-3.67-.32-4.16,0-7.07,2.28-8.72,6.84v35.52h-8.12V20.83h7.89l.14,5.05c2.17-3.98,5.25-5.97,9.22-5.97,1.29,0,2.36.22,3.21.64l.05,7.9Z"></path>
        <path class="cls-3" d="M223.27,48.05c0,7.74-1.39,13.57-4.17,17.49-2.79,3.92-6.82,5.87-12.12,5.87s-9.21-2.26-11.84-6.79l-.41,5.87h-7.39V0h8.08v26.3c2.66-4.25,6.49-6.38,11.47-6.38,5.45,0,9.53,1.93,12.25,5.78,2.72,3.86,4.1,9.67,4.13,17.44v4.91ZM215.19,43.39c0-5.87-.82-10.05-2.46-12.54-1.64-2.49-4.29-3.73-7.96-3.73-4.19,0-7.31,2.26-9.36,6.78v23.6c2.02,4.46,5.17,6.69,9.46,6.69,3.67,0,6.3-1.28,7.89-3.85,1.59-2.57,2.4-6.55,2.43-11.96v-5Z"></path>
        <path class="cls-3" d="M246.7,71.41c-6.18,0-10.92-1.84-14.23-5.53s-4.99-9.1-5.05-16.22v-6.01c0-7.4,1.61-13.21,4.84-17.42,3.23-4.21,7.73-6.31,13.52-6.31s10.16,1.85,13.03,5.55c2.88,3.7,4.34,9.47,4.4,17.3v5.32h-27.72v1.15c0,5.32,1,9.2,3,11.61,2,2.42,4.89,3.62,8.65,3.62,2.39,0,4.49-.45,6.31-1.35,1.82-.9,3.53-2.33,5.12-4.29l4.22,5.14c-3.52,4.96-8.89,7.43-16.11,7.43M245.78,26.89c-3.37,0-5.86,1.15-7.48,3.46s-2.54,5.9-2.75,10.76h19.55v-1.1c-.21-4.71-1.06-8.08-2.55-10.09-1.49-2.02-3.74-3.03-6.77-3.03"></path>
        <path class="cls-3" d="M275.91,20.83l.23,5.37c3.15-4.19,7.18-6.29,12.07-6.29,8.78,0,13.23,5.86,13.35,17.58v32.99h-8.08v-32.63c0-3.89-.65-6.65-1.95-8.28-1.3-1.63-3.25-2.46-5.85-2.46-2.02,0-3.83.67-5.44,2.02-1.61,1.35-2.9,3.1-3.88,5.28v36.07h-8.12V20.83h7.66Z"></path>
        <path class="cls-3" d="M319.68,8.81v12.02h7.48v6.56h-7.48v30.83c0,1.96.32,3.45.96,4.46.64,1.01,1.75,1.52,3.31,1.52,1.07,0,2.16-.18,3.26-.55l-.09,6.84c-1.84.61-3.72.91-5.64.91-3.21,0-5.66-1.15-7.34-3.44-1.68-2.29-2.52-5.54-2.52-9.73v-30.84h-7.57v-6.56h7.57v-12.02h8.08Z"></path>
        <path class="cls-3" d="M356.23,57.78c0-1.75-.66-3.24-1.97-4.5-1.32-1.26-3.86-2.72-7.62-4.41-4.38-1.8-7.46-3.35-9.25-4.64-1.79-1.28-3.13-2.74-4.02-4.38-.89-1.63-1.33-3.59-1.33-5.85,0-4.04,1.48-7.4,4.43-10.07,2.95-2.68,6.72-4.02,11.31-4.02,4.83,0,8.72,1.41,11.65,4.22,2.94,2.82,4.41,6.43,4.41,10.83h-8.08c0-2.23-.75-4.14-2.25-5.71-1.5-1.58-3.41-2.36-5.73-2.36s-4.26.62-5.62,1.86c-1.36,1.24-2.04,2.89-2.04,4.96,0,1.65.5,2.97,1.49,3.98.99,1.01,3.39,2.33,7.18,3.98,6.03,2.36,10.13,4.66,12.3,6.92,2.17,2.25,3.26,5.11,3.26,8.57,0,4.32-1.48,7.78-4.45,10.37-2.97,2.59-6.94,3.88-11.93,3.88s-9.36-1.48-12.57-4.45c-3.21-2.97-4.82-6.73-4.82-11.29h8.17c.09,2.75.93,4.91,2.52,6.47,1.59,1.56,3.82,2.34,6.7,2.34,2.69,0,4.74-.6,6.15-1.81,1.41-1.21,2.11-2.84,2.11-4.89"></path>
        <polygon class="cls-2" points="190.42 101.59 175.77 101.59 175.77 116.96 171.07 116.96 171.07 82.22 192.85 82.22 192.85 85.92 175.77 85.92 175.77 97.9 190.42 97.9 190.42 101.59"></polygon>
        <path class="cls-2" d="M222.11,102.69c0,4.25-1.32,7.77-3.95,10.57-2.63,2.8-6.05,4.2-10.25,4.2s-7.35-1.4-9.89-4.2-3.8-6.32-3.8-10.57v-6.18c0-4.23,1.27-7.76,3.8-10.57,2.54-2.82,5.83-4.22,9.89-4.22s7.61,1.4,10.25,4.21c2.63,2.81,3.95,6.33,3.95,10.58v6.18ZM217.41,96.46c0-3.18-.86-5.79-2.58-7.82-1.72-2.04-4.03-3.06-6.92-3.06-2.74,0-4.92,1.02-6.55,3.06-1.63,2.03-2.45,4.64-2.45,7.82v6.23c0,3.21.81,5.84,2.45,7.87,1.63,2.03,3.81,3.05,6.55,3.05,2.91,0,5.22-1.02,6.93-3.04,1.71-2.03,2.57-4.65,2.57-7.88v-6.23Z"></path>
        <path class="cls-2" d="M231.14,101.9v15.05h-4.7v-34.71h11.88c3.8,0,6.7.84,8.71,2.53,2,1.69,3.01,4.14,3.01,7.35,0,1.78-.46,3.33-1.39,4.65-.93,1.32-2.29,2.37-4.07,3.15,1.91.62,3.28,1.63,4.11,3.02.84,1.39,1.26,3.11,1.26,5.16v3.27c0,1.08.12,2.05.36,2.91.24.86.65,1.56,1.24,2.1v.57h-4.84c-.62-.54-1.02-1.34-1.19-2.39-.18-1.05-.26-2.13-.26-3.24v-3.17c0-1.87-.54-3.39-1.64-4.53-1.1-1.15-2.57-1.72-4.41-1.72h-8.04ZM231.14,98.21h6.7c2.65,0,4.57-.51,5.74-1.51,1.17-1.01,1.75-2.55,1.75-4.62,0-1.96-.57-3.47-1.71-4.54-1.14-1.07-2.91-1.61-5.31-1.61h-7.18v12.29Z"></path>
        <polygon class="cls-2" points="269.48 113.28 286.42 113.28 286.42 116.96 264.78 116.96 264.78 82.22 269.48 82.22 269.48 113.28"></polygon>
        <polygon class="cls-2" points="308.17 101.36 293.91 101.36 293.91 113.79 310.6 113.79 310.6 117.46 289.2 117.46 289.2 82.72 310.34 82.72 310.34 86.42 293.91 86.42 293.91 97.66 308.17 97.66 308.17 101.36"></polygon>
        <path class="cls-2" d="M332.23,108.2c0-1.57-.56-2.89-1.69-3.96-1.13-1.06-3.12-1.97-5.97-2.72-3.53-.88-6.29-2.16-8.26-3.87-1.98-1.7-2.97-3.84-2.97-6.42,0-2.72,1.06-4.99,3.2-6.8,2.13-1.81,4.9-2.72,8.3-2.72,3.66,0,6.57,1.04,8.75,3.11,2.17,2.08,3.22,4.5,3.16,7.26l-.07.15h-4.49c0-1.97-.69-3.6-2.06-4.89-1.38-1.29-3.14-1.93-5.28-1.93s-3.88.54-5.05,1.6c-1.17,1.07-1.75,2.45-1.75,4.15,0,1.51.64,2.77,1.92,3.78,1.28,1.01,3.36,1.9,6.24,2.66,3.5.9,6.16,2.24,7.99,4.01,1.83,1.76,2.74,3.94,2.74,6.54,0,2.8-1.1,5.05-3.31,6.75-2.2,1.7-5.08,2.55-8.62,2.55-3.36,0-6.32-.94-8.89-2.82-2.57-1.88-3.81-4.39-3.73-7.54l.05-.15h4.48c0,2.18.83,3.86,2.48,5.05,1.65,1.18,3.52,1.78,5.61,1.78,2.23,0,3.99-.5,5.28-1.5,1.29-1,1.94-2.36,1.94-4.08"></path>
        <path class="cls-2" d="M359.66,108.2c0-1.57-.56-2.89-1.69-3.96-1.13-1.06-3.12-1.97-5.97-2.72-3.53-.88-6.29-2.16-8.26-3.87-1.98-1.7-2.97-3.84-2.97-6.42,0-2.72,1.06-4.99,3.2-6.8,2.13-1.81,4.9-2.72,8.3-2.72,3.66,0,6.57,1.04,8.75,3.11,2.17,2.08,3.22,4.5,3.16,7.26l-.07.15h-4.49c0-1.97-.69-3.6-2.06-4.89-1.38-1.29-3.14-1.93-5.28-1.93s-3.88.54-5.04,1.6c-1.17,1.07-1.75,2.45-1.75,4.15,0,1.51.64,2.77,1.92,3.78,1.28,1.01,3.36,1.9,6.24,2.66,3.5.9,6.16,2.24,7.99,4.01,1.83,1.76,2.74,3.94,2.74,6.54,0,2.8-1.1,5.05-3.31,6.75-2.2,1.7-5.08,2.55-8.62,2.55-3.36,0-6.32-.94-8.89-2.82-2.57-1.88-3.81-4.39-3.73-7.54l.05-.15h4.48c0,2.18.83,3.86,2.48,5.05,1.65,1.18,3.52,1.78,5.61,1.78,2.23,0,3.99-.5,5.28-1.5,1.29-1,1.94-2.36,1.94-4.08"></path>
        <path class="cls-3" d="M441.27,0C408.84,0,382.54,26.3,382.54,58.73s26.3,58.73,58.73,58.73,58.73-26.3,58.73-58.73S473.7,0,441.27,0M410.77,46.75s.07-.09.1-.14l.04-.05,1.05-1.35,28.26-36.25,4.2,5.38-28.28,36.26c-.17.22-.33.45-.49.68-4,5.67-4.6,13.09-1.55,19.31.18.37.36.69.51.95.95,1.52,2.03,2.96,3.24,4.29,1.26,1.39,2.66,2.67,4.17,3.79.34.25.77.53,1.27.81,2.47,1.4,5.17,2.27,7.91,2.59,4.31.5,8.75-.34,12.64-2.55.46-.26.86-.52,1.18-.75,1.56-1.15,3.01-2.46,4.31-3.9-.04.13-.07.26-.12.4l-.04.14c-1.39,4.39-4.26,8.36-8.08,11.18,0,0-.15.11-.52.32-2.03,1.15-4.34,1.78-6.69,1.82-.08,0-.27,0-.27,0-3.65,0-7.3-.79-10.69-2.36-1.08-.42-2.23-1.02-3.23-1.59-.01,0-.03-.02-.05-.03-1.86-1.06-3.59-2.34-5.13-3.83-.9-.88-1.76-1.8-2.57-2.76-1.26-1.51-2.4-3.13-3.4-4.82-.17-.29-.36-.67-.57-1.12-3.96-8.64-2.9-18.8,2.77-26.43M451.54,96.07c-1.52,1.29-3.2,2.39-4.98,3.31-.67.35-1.39.7-2.11,1.04-6.81,3.2-14.69,3.2-21.52.05-1.08-.42-2.23-1.02-3.23-1.59-.01,0-.03-.02-.05-.03-1.86-1.06-3.59-2.33-5.13-3.82-3.64-3.54-6.54-7.84-8.4-12.6.25.31.5.62.75.93.94,1.13,1.97,2.23,3.03,3.27,1.88,1.83,4.03,3.44,6.38,4.78h.02s.11.08.11.08c1.4.79,2.71,1.44,3.9,1.92,4.09,1.86,8.44,2.83,12.93,2.88.12,0,.64,0,.75,0,3.4-.06,6.79-.95,9.85-2.69.46-.26.86-.51,1.18-.75,4.92-3.63,8.69-8.8,10.52-14.68.98-3.18,1.47-6.4,1.47-9.56,0-3.63-1.11-7.1-3.25-10l-9.35-11.99,4.2-5.38,10.42,13.36c2.99,4.01,4.55,8.77,4.61,13.73v.25c0,.19,0,.39,0,.59-.06,3.63-.64,7.32-1.76,10.95-1.85,5.97-5.32,11.32-9.87,15.52-.13.12-.3.26-.47.41M475.13,80.14c-3.23,10.42-11.42,19-21.63,22.77.8-.56,1.58-1.15,2.32-1.78.28-.24.5-.43.68-.6,5.49-5.07,9.54-11.45,11.7-18.43.83-2.67,1.29-5.45,1.63-8.17,1.42-8.33-.51-16.64-5.52-23.33l-15.68-20.11-21.94,28.14c-2.89,3.92-3.9,8.88-2.85,13.86-.37-.36-.74-.73-1.08-1.12-.93-1.03-1.78-2.14-2.5-3.31,0,0-.07-.11-.2-.39-1.45-2.95-1.65-6.43-.55-9.54.33-.93.77-1.81,1.31-2.63.21-.32.43-.64.6-.88l27.21-34.9,20.93,26.83.04.05c7.17,9.55,9.19,21.77,5.55,33.53"></path>
        <path class="cls-4" d="M157.63,97.29c-2.88.18-5.78-.49-8.46-2.07-1.46-.87-2.93-1.73-4.39-2.59-4.8-2.84-10.37-2.84-15.17,0-1.46.86-2.93,1.73-4.39,2.59-4.8,2.84-10.37,2.84-15.17,0-1.46-.87-2.93-1.73-4.39-2.59-4.8-2.84-10.37-2.84-15.17,0-1.46.86-2.93,1.73-4.39,2.59-4.8,2.84-10.37,2.84-15.17,0-1.46-.87-2.93-1.73-4.39-2.59-4.8-2.84-10.37-2.84-15.17,0-1.46.86-2.93,1.73-4.39,2.59-4.8,2.84-10.37,2.84-15.17,0-1.46-.87-2.93-1.73-4.39-2.59-4.8-2.84-10.37-2.84-15.17,0-1.46.86-2.93,1.73-4.39,2.59-2.49,1.47-5.18,2.16-7.87,2.11v2.23c2.69.05,5.38-.64,7.87-2.11,1.46-.87,2.93-1.73,4.39-2.59,4.8-2.84,10.37-2.84,15.17,0,1.46.86,2.93,1.73,4.39,2.59,4.8,2.84,10.37,2.84,15.17,0,1.46-.87,2.93-1.73,4.39-2.59,4.8-2.84,10.37-2.84,15.17,0,1.46.86,2.93,1.73,4.39,2.59,4.8,2.84,10.37,2.84,15.17,0,1.46-.87,2.93-1.73,4.39-2.59,4.8-2.84,10.37-2.84,15.17,0,1.46.86,2.93,1.73,4.39,2.59,4.8,2.84,10.37,2.84,15.17,0,1.46-.87,2.93-1.73,4.39-2.59,4.8-2.84,10.37-2.84,15.17,0,1.46.86,2.93,1.73,4.39,2.59,2.67,1.58,5.58,2.25,8.46,2.07v-2.23Z"></path>
        <path class="cls-4" d="M157.63,106.39c-2.88.18-5.78-.49-8.46-2.07-1.46-.87-2.93-1.73-4.39-2.59-4.8-2.84-10.37-2.84-15.17,0-1.46.86-2.93,1.73-4.39,2.59-4.8,2.84-10.37,2.84-15.17,0-1.46-.87-2.93-1.73-4.39-2.59-4.8-2.84-10.37-2.84-15.17,0-1.46.86-2.93,1.73-4.39,2.59-4.8,2.84-10.37,2.84-15.17,0-1.46-.87-2.93-1.73-4.39-2.59-4.8-2.84-10.37-2.84-15.17,0-1.46.86-2.93,1.73-4.39,2.59-4.8,2.84-10.37,2.84-15.17,0-1.46-.87-2.93-1.73-4.39-2.59-4.8-2.84-10.37-2.84-15.17,0-1.46.86-2.93,1.73-4.39,2.59-2.49,1.47-5.18,2.16-7.87,2.11v2.23c2.69.05,5.38-.64,7.87-2.11,1.46-.87,2.93-1.73,4.39-2.59,4.8-2.84,10.37-2.84,15.17,0,1.46.86,2.93,1.73,4.39,2.59,4.8,2.84,10.37,2.84,15.17,0,1.46-.87,2.93-1.73,4.39-2.59,4.8-2.84,10.37-2.84,15.17,0,1.46.86,2.93,1.73,4.39,2.59,4.8,2.84,10.37,2.84,15.17,0,1.46-.87,2.93-1.73,4.39-2.59,4.8-2.84,10.37-2.84,15.17,0,1.46.86,2.93,1.73,4.39,2.59,4.8,2.84,10.37,2.84,15.17,0,1.46-.87,2.93-1.73,4.39-2.59,4.8-2.84,10.37-2.84,15.17,0,1.46.86,2.93,1.73,4.39,2.59,2.67,1.58,5.58,2.25,8.46,2.07v-2.23Z"></path>
      </g>
    </g>
  </g>
</svg>