<?xml version="1.0"?>
<svg id="Layer_1" data-name="Layer 1" xmlns="http://www.w3.org/2000/svg" version="1.1" xmlns:xlink="http://www.w3.org/1999/xlink" viewBox="0 0 78 107.84">
  <defs>
    
    <clipPath id="clippath">
      <rect fill="none" width="500" height="107.84"></rect>
    </clipPath>
    <clipPath id="clippath-1">
      <rect fill="none" width="500" height="107.84"></rect>
    </clipPath>
    <clipPath id="clippath-2">
      <rect fill="none" width="500" height="107.84"></rect>
    </clipPath>
    <clipPath id="clippath-3">
      <rect fill="none" x="70.96" y="56.97" width="0" height=".02"></rect>
    </clipPath>
  </defs>
  <g id="Artwork_9" data-name="Artwork 9">
    <g>
      <g>
        <g>
          <line fill="none" stroke="#7C9CB6" stroke-width="2.2" x1="98.26" y1="1.72" x2="98.26" y2="106.12"></line>
          <path fill="#7C9CB6" d="M116.38,53.14c0-2.75.37-5.26,1.12-7.55.75-2.28,1.85-4.34,3.31-6.18,3-3.9,7.34-5.88,13-5.95,2.87.03,5.39.55,7.57,1.55,2.18,1,4.03,2.45,5.56,4.38,2.9,3.73,4.35,8.31,4.35,13.75,0,2.59-.39,5.06-1.16,7.39-.77,2.33-1.83,4.41-3.17,6.23-1.51,1.87-3.38,3.34-5.6,4.4-2.22,1.06-4.74,1.61-7.56,1.65-2.88-.04-5.4-.56-7.54-1.57-2.15-1.01-3.96-2.5-5.43-4.46-2.97-3.69-4.46-8.24-4.46-13.65M123.98,41.63c-1.18,1.46-2.09,3.14-2.73,5.05-.64,1.91-.98,4.06-1.03,6.46.05,2.4.39,4.55,1.03,6.45.64,1.9,1.55,3.58,2.73,5.03,2.3,2.85,5.58,4.29,9.84,4.33,2.15-.02,4.03-.38,5.67-1.09,1.63-.71,3.04-1.8,4.22-3.26,1.24-1.46,2.16-3.14,2.77-5.03.61-1.9.93-4.04.97-6.42-.09-4.76-1.32-8.59-3.71-11.51v.03c-1.17-1.34-2.59-2.38-4.27-3.14-1.68-.76-3.56-1.15-5.64-1.19-2.15.04-4.03.41-5.65,1.13-1.62.72-3.02,1.78-4.18,3.17"></path>
          <path fill="#7C9CB6" d="M159.21,68.1h20.83c.41,0,.76.14,1.03.43.27.28.41.62.41,1.02v.98c0,.39-.14.73-.41,1.02-.27.28-.62.43-1.03.43h-23.25c-.4,0-.73-.14-1.02-.43-.28-.28-.42-.62-.42-1.02v-34.76c0-.39.14-.73.42-1.02.28-.28.62-.42,1.02-.42h23.07c.41,0,.76.14,1.03.42.27.28.41.62.41,1.02v.98c0,.4-.14.73-.41,1.02-.27.28-.62.43-1.03.43h-20.65v12.28h19.36c.39,0,.73.14,1,.42.27.28.41.63.41,1.04v.98c0,.41-.14.75-.41,1.02-.28.27-.61.4-1,.4h-19.36v13.78Z"></path>
          <path fill="#7C9CB6" d="M208.34,46.91c-.38,0-.71-.13-.99-.4-.28-.27-.43-.6-.45-.99-.07-1.48-.34-2.75-.81-3.82-.47-1.07-1.12-1.92-1.94-2.54-.88-.6-1.91-1.06-3.12-1.38-1.2-.32-2.53-.47-3.99-.45-1.2-.02-2.35.11-3.44.37-1.09.27-2.13.65-3.13,1.15-.84.45-1.52,1.09-2.03,1.93-.29.39-.5.85-.63,1.38-.13.52-.19,1.1-.19,1.74,0,.6.06,1.14.18,1.62.12.48.31.87.57,1.18.58.77,1.32,1.4,2.21,1.88h-.03c.5.24,1.04.46,1.63.66.59.2,1.24.37,1.94.53.5.14,1.01.27,1.54.4.53.13,1.07.26,1.62.4h-.03c.19.05.38.11.57.17.19.06.38.12.57.17v-.03c.84.19,1.67.38,2.5.58.82.2,1.6.39,2.32.58.69.21,1.39.47,2.1.79.71.32,1.37.65,1.97.99.62.36,1.19.81,1.71,1.34.52.53.98,1.13,1.38,1.78.38.67.65,1.42.81,2.27.16.84.24,1.79.24,2.83-.03,1.89-.44,3.53-1.22,4.93-.78,1.4-1.9,2.54-3.36,3.41-1.32.81-2.74,1.42-4.26,1.83-1.52.41-3.13.62-4.83.62-2.15,0-4.12-.28-5.92-.85-1.8-.57-3.4-1.37-4.79-2.42-1.29-1.13-2.33-2.6-3.12-4.4-.79-1.8-1.19-3.85-1.21-6.15,0-.41.14-.76.41-1.03.27-.27.62-.41,1.03-.41h.98c.39,0,.73.14,1.02.43.28.28.42.62.42,1.02.03,3.64,1.02,6.17,2.96,7.6,1.03.79,2.22,1.39,3.58,1.79,1.36.4,2.9.6,4.64.58,1.24,0,2.45-.16,3.63-.49,1.18-.33,2.29-.76,3.32-1.31.89-.55,1.58-1.26,2.07-2.12.49-.87.75-1.89.79-3.08,0-1.44-.27-2.57-.82-3.37-.29-.4-.63-.76-1.02-1.08-.39-.33-.85-.61-1.38-.85-.55-.27-1.13-.51-1.74-.72-.61-.21-1.23-.38-1.87-.52-.72-.19-1.42-.36-2.09-.51-.67-.15-1.37-.3-2.09-.44-.19-.03-.37-.07-.54-.12-.17-.04-.34-.08-.51-.12-.4-.08-.77-.18-1.13-.27s-.73-.19-1.11-.3c-.17-.05-.34-.1-.5-.16-.16-.05-.32-.09-.48-.13-1.51-.4-2.88-.93-4.09-1.6-.69-.39-1.29-.84-1.81-1.33-.52-.49-.98-1.05-1.35-1.69l.03.03c-.87-1.29-1.31-2.92-1.31-4.89,0-1.05.11-1.99.33-2.85.22-.85.55-1.6.98-2.25l-.03.03c.81-1.32,1.91-2.41,3.3-3.27,1.32-.79,2.75-1.35,4.28-1.67.72-.14,1.45-.24,2.19-.31.74-.07,1.49-.1,2.24-.1,3.83-.03,6.99.84,9.48,2.63,1.29.96,2.28,2.22,2.99,3.79.7,1.56,1.12,3.4,1.26,5.51-.02.39-.16.75-.44,1.06-.27.31-.61.46-1,.46h-.98Z"></path>
          <path fill="#7C9CB6" d="M247.51,68.95c3.47-.03,6.39-1.17,8.78-3.4v-.03c2.3-2.18,3.49-5,3.58-8.47v.03c-.03-.27-.12-.41-.26-.41h-11.77c-.41,0-.76-.14-1.04-.41-.28-.27-.43-.62-.43-1.03v-.98c0-.4.14-.73.43-1.02.28-.28.63-.43,1.04-.43h11.85c.82,0,1.5.12,2.03.36.53.24.96.58,1.28,1.02.32.44.54.97.66,1.58.12.62.18,1.31.18,2.06,0,1.46-.31,3.02-.93,4.69-2.57,6.76-7.76,10.2-15.55,10.3-2.85-.04-5.4-.56-7.65-1.58-2.25-1.02-4.14-2.47-5.67-4.34-1.43-1.84-2.52-3.92-3.3-6.26-.77-2.33-1.16-4.83-1.16-7.49.02-5.6,1.59-10.22,4.71-13.88,1.56-1.87,3.42-3.3,5.59-4.27,2.16-.98,4.65-1.49,7.47-1.52,8.93.17,14.2,4.47,15.84,12.9.09.46,0,.86-.28,1.2-.27.33-.66.5-1.16.5h-.95c-.34,0-.65-.12-.91-.35-.27-.23-.43-.5-.5-.81-.33-1.49-.84-2.81-1.55-3.96-.7-1.15-1.57-2.12-2.61-2.92-1.04-.8-2.22-1.42-3.55-1.87-1.33-.45-2.78-.72-4.34-.82-2.2.05-4.15.46-5.84,1.21-1.7.76-3.14,1.87-4.33,3.35-2.49,3-3.73,6.76-3.73,11.25s1.2,8.22,3.6,11.18l-.03-.03c.72.77,1.41,1.42,2.06,1.93.7.55,1.49,1.02,2.34,1.42.88.45,1.82.78,2.82.99,1,.22,2.1.32,3.28.32"></path>
          <path fill="#7C9CB6" d="M291.31,68.1c.4,0,.73.14,1,.43.27.28.41.62.41,1.02v.98c0,.39-.14.73-.41,1.02-.28.28-.61.43-1,.43h-21.27c-.41,0-.76-.14-1.03-.43-.27-.28-.41-.62-.41-1.02v-34.76c0-.39.14-.73.41-1.02s.62-.42,1.03-.42h.95c.41,0,.76.14,1.04.42.28.28.42.62.42,1.02v32.34h18.85Z"></path>
          <path fill="#7C9CB6" d="M293.06,53.14c0-2.75.37-5.26,1.12-7.55.75-2.28,1.85-4.34,3.31-6.18,3-3.9,7.34-5.88,13-5.95,2.87.03,5.39.55,7.57,1.55,2.18,1,4.03,2.45,5.56,4.38,2.9,3.73,4.35,8.31,4.35,13.75,0,2.59-.39,5.06-1.16,7.39-.77,2.33-1.83,4.41-3.17,6.23-1.51,1.87-3.38,3.34-5.6,4.4-2.22,1.06-4.74,1.61-7.56,1.65-2.88-.04-5.4-.56-7.54-1.57-2.15-1.01-3.96-2.5-5.43-4.46-2.97-3.69-4.45-8.24-4.45-13.65M300.66,41.63c-1.18,1.46-2.09,3.14-2.73,5.05-.64,1.91-.98,4.06-1.03,6.46.05,2.4.39,4.55,1.03,6.45.64,1.9,1.55,3.58,2.73,5.03,2.3,2.85,5.58,4.29,9.84,4.33,2.15-.02,4.03-.38,5.67-1.09,1.63-.71,3.04-1.8,4.22-3.26,1.24-1.46,2.16-3.14,2.77-5.03.61-1.9.93-4.04.97-6.42-.09-4.76-1.32-8.59-3.71-11.51v.03c-1.17-1.34-2.59-2.38-4.27-3.14-1.68-.76-3.56-1.15-5.64-1.19-2.15.04-4.03.41-5.65,1.13-1.62.72-3.02,1.78-4.18,3.17"></path>
          <path fill="#7C9CB6" d="M331.69,38.64c0-.15,0-.31-.01-.45,0-.15-.01-.29-.01-.43,0-.7.07-1.28.22-1.74.15-.45.47-.81.98-1.07.51-.26,1.24-.44,2.2-.54.96-.1,2.27-.15,3.91-.15h1.34c.29,0,.59,0,.89.01.3,0,.62.01.97.01.84.02,1.75.03,2.73.03h3.22c1.56,0,3,.21,4.31.62,1.31.41,2.49,1,3.51,1.78,1.08.88,1.91,1.96,2.5,3.25.58,1.29.88,2.78.9,4.48-.02,1.27-.23,2.43-.64,3.49-.41,1.06-1,2.02-1.78,2.9-.27.28-.54.53-.8.76-.26.23-.54.44-.85.63.4.21.78.44,1.15.71.37.27.72.55,1.04.84.93.87,1.65,1.93,2.16,3.17.51,1.24.78,2.63.8,4.17-.02,1.73-.35,3.29-1,4.66-.65,1.37-1.57,2.53-2.76,3.48-1.18.87-2.55,1.55-4.1,2.02-1.55.47-3.23.71-5.05.71h-14.37c-.41,0-.76-.14-1.04-.43-.28-.28-.43-.62-.43-1.02v-31.88ZM348.12,50.46c2.11,0,3.89-.53,5.33-1.6.65-.46,1.15-1.06,1.51-1.8.35-.74.53-1.62.53-2.65s-.17-1.98-.5-2.76c-.33-.77-.8-1.41-1.4-1.9-.67-.5-1.47-.88-2.39-1.16-.93-.27-1.95-.41-3.06-.41-1.67,0-3.15,0-4.44-.03-1.3-.02-2.43-.04-3.41-.08-.5-.02-1.02-.03-1.57-.04-.55,0-1-.01-1.34-.01-.46,0-.82,0-1.07.03-.25.02-.43.05-.54.1-.11.05-.17.12-.18.21,0,.09-.01.2-.01.33v11.77h12.57ZM335.55,68.1h12.41c2.61,0,4.7-.6,6.28-1.8,1.53-1.12,2.3-2.83,2.32-5.15-.03-1.24-.26-2.29-.67-3.17-.41-.88-.98-1.55-1.7-2.03-.87-.5-1.82-.89-2.85-1.18-1.02-.29-2.1-.44-3.23-.44h-12.57v13.78Z"></path>
          <path fill="#7C9CB6" d="M369.18,60.53c-.5,1.29-1.01,2.56-1.53,3.82-.52,1.26-1.04,2.54-1.56,3.82-.21.48-.41.96-.61,1.44-.2.48-.39.96-.58,1.44v-.03c-.09.24-.27.46-.55.64-.28.19-.54.28-.79.28h-1.13c-.27,0-.51-.06-.72-.17-.21-.11-.37-.26-.49-.45-.12-.19-.19-.4-.22-.64-.03-.24.01-.49.12-.75l14.11-34.74c.09-.24.27-.45.54-.63.27-.18.53-.27.77-.27h1.31c.24,0,.5.09.79.28.28.19.47.39.55.62l13.73,34.76c.21.52.17.98-.1,1.38-.27.4-.69.61-1.26.61h-1.06c-.24,0-.5-.09-.77-.28-.27-.19-.45-.4-.54-.64v.03c-.72-1.78-1.43-3.54-2.14-5.27s-1.42-3.48-2.14-5.27h-15.73ZM383.42,56.67c-.88-2.25-1.76-4.53-2.65-6.84-.89-2.31-1.78-4.6-2.65-6.89-.1-.24-.19-.46-.26-.64-.07-.19-.14-.37-.21-.55-.07-.18-.14-.37-.21-.57-.07-.2-.15-.42-.26-.66-.76,1.87-1.48,3.67-2.18,5.41-.69,1.73-1.41,3.5-2.15,5.3-.34.88-.69,1.76-1.04,2.64-.35.88-.72,1.82-1.09,2.79h12.69ZM378.47,37.28c-.19.46-.37.91-.54,1.35-.17.44-.34.88-.51,1.33-.04.12-.11.18-.23.17-.12,0-.2-.07-.23-.19-.05-.14-.11-.28-.17-.43-.06-.15-.12-.29-.17-.43v.03c-.12-.29-.24-.6-.35-.91-.11-.32-.23-.64-.35-.97-.03-.1,0-.19.08-.26.09-.07.18-.07.28,0l.9.62c.15-.12.31-.23.46-.32.15-.09.31-.18.46-.27l.36.28Z"></path>
          <path fill="#7C9CB6" d="M417.26,68.1c.4,0,.73.14,1,.43.27.28.41.62.41,1.02v.98c0,.39-.14.73-.41,1.02-.28.28-.61.43-1,.43h-21.27c-.41,0-.76-.14-1.03-.43-.27-.28-.41-.62-.41-1.02v-34.76c0-.39.14-.73.41-1.02s.62-.42,1.03-.42h.95c.41,0,.76.14,1.04.42.28.28.42.62.42,1.02v32.34h18.85Z"></path>
          <path fill="#7C9CB6" d="M433.82,42.73c0-.31.11-.57.33-.8.22-.22.49-.33.8-.33h.77c.32,0,.59.11.81.33.21.22.32.49.32.8v27.2c0,.31-.11.57-.32.8-.22.22-.48.33-.81.33h-.77c-.31,0-.58-.11-.8-.33-.22-.22-.33-.49-.33-.8v-27.2Z"></path>
          <path fill="#7C9CB6" d="M439.51,42.73c0-.31.11-.57.33-.8.22-.22.49-.33.82-.33h1.13c.12,0,.28.05.47.15.2.1.35.21.45.33,2.73,3.83,5.49,7.73,8.3,11.7,2.81,3.97,5.58,7.89,8.3,11.76v-22.81c0-.31.11-.57.33-.8.22-.22.49-.33.8-.33h.77c.32,0,.59.11.81.33.22.22.32.49.32.8v27.2c0,.31-.11.57-.32.8-.22.22-.48.33-.81.33h-1.15c-.13,0-.31-.05-.51-.15-.21-.1-.35-.22-.41-.35l.02.02c-1.41-1.99-2.81-3.95-4.18-5.89-1.38-1.94-2.75-3.88-4.12-5.81-1.37-1.93-2.75-3.87-4.13-5.81-1.38-1.94-2.78-3.91-4.19-5.91v22.79c0,.31-.1.57-.31.8-.21.22-.48.33-.82.33h-.75c-.32,0-.59-.11-.82-.33-.22-.22-.33-.49-.33-.8v-27.2Z"></path>
          <path fill="#7C9CB6" d="M490.59,58.14c.35,0,.63.12.84.37.21.25.3.55.27.9-.24,1.8-.7,3.43-1.37,4.9-.67,1.46-1.57,2.75-2.68,3.87-1.13,1.17-2.44,2.05-3.94,2.64-1.5.59-3.2.89-5.11.91-4.02-.07-7.24-1.52-9.65-4.37l.02.02c-1.26-1.42-2.21-3.03-2.84-4.81-.63-1.78-.95-3.78-.97-6.01,0-3.76,1.06-7.21,3.18-10.36v.02c2.22-3.43,5.8-5.18,10.76-5.28,2.02.04,3.76.35,5.25.94,1.48.58,2.72,1.43,3.72,2.55h-.02c2.01,2.2,3.04,4.35,3.06,6.45,0,.31-.11.58-.33.81-.22.23-.49.34-.8.34h-.79c-.28,0-.53-.1-.75-.31-.22-.21-.34-.45-.36-.72-.08-.9-.33-1.75-.76-2.56-.42-.81-1.03-1.56-1.82-2.26-1.56-1.42-3.7-2.16-6.43-2.22-2,.01-3.68.42-5.04,1.23-.68.39-1.3.84-1.85,1.34-.55.5-1.03,1.06-1.45,1.66v-.02c-.85,1.37-1.49,2.75-1.92,4.13-.44,1.38-.65,2.8-.63,4.25,0,3.33.94,6.18,2.82,8.54,1.75,2.34,4.29,3.54,7.64,3.61,2.94-.03,5.25-.93,6.93-2.72.83-.87,1.51-1.9,2.03-3.07.52-1.18.89-2.44,1.09-3.8.03-.27.15-.5.38-.69.23-.19.48-.28.75-.28h.77Z"></path>
          <path fill="#7C9CB6" d="M500,69.95c0,.31-.11.57-.32.79-.22.22-.48.32-.79.32h-.75c-.31,0-.57-.11-.78-.32-.21-.21-.31-.48-.31-.79v-3.63c0-.31.1-.57.31-.79.21-.22.47-.32.78-.32h.75c.31,0,.57.11.79.32.21.21.32.48.32.79v3.63Z"></path>
          <g>
            <g>
              <path fill="#7C9CB6" d="M70.96,56.99s0,0,0,0v-.02s0,.02,0,.02"></path>
            </g>
          </g>
          <path fill="#7C9CB6" d="M70.96,56.99s0,0,0,0v-.02s0,.02,0,.02"></path>
          <path fill="#7C9CB6" d="M56.98,57.5c.62.04,1.25.11,1.88.19-1.09-.19-1.88-.19-1.88-.19M56.98,57.5c.62.04,1.25.11,1.88.19-1.09-.19-1.88-.19-1.88-.19"></path>
          <path fill="#7C9CB6" d="M77.52,51.14c-.12-2.3-.43-4.55-.93-6.72-.02-.08-.04-.16-.05-.24-.72-3.06-1.8-5.99-3.2-8.73-1.31-2.55-2.88-4.93-4.69-7.12-6.24-7.52-15.26-12.65-25.49-13.8h-.01c-1.43-.16-2.89-.24-4.36-.24-.54,0-1.08,0-1.62.03-10.29.42-19.55,4.86-26.25,11.78-2.14,2.2-4.02,4.66-5.58,7.32-1.61,2.73-2.89,5.68-3.79,8.78-.44,1.5-.78,3.02-1.03,4.58-.22,1.35-.37,2.72-.44,4.12,0,.13-.04.44-.04.91-.01.25-.01.51-.02.77,0,.25,0,.51,0,.77C0,53.55,0,53.76,0,53.96v.1c0,.35.02.71.04,1.06,0,.07,0,.15.01.23,0,.04,0,.07,0,.1.17,2.94.68,5.77,1.47,8.5.07.24.14.49.21.72.72,2.27,1.64,4.47,2.74,6.54,1.79,3.37,4.06,6.45,6.72,9.14,7.03,7.1,16.78,11.51,27.57,11.51,11.6,0,22.02-5.1,29.13-13.18,2.5-2.84,4.59-6.05,6.19-9.54,1.07-2.34,1.9-4.8,2.49-7.36.64-2.8.98-5.71.98-8.71,0-.65-.02-1.29-.04-1.93M70.96,56.94s0,.02,0,.04c0,0,0,.02,0,.02-1.89-2.67-4.64-4.42-8-5.27-3.24-.82-6.66-.83-10.03-.83-6.04,0-8.02-.14-14.05-.14v6.75c4.57-.07,5.09-.04,9.64-.1,2.86-.03,5.65-.12,8.47.1,0,0,.79,0,1.87.19,2.2.38,5.61,1.54,6.02,5.06.09.92-.04,1.85-.52,2.66-1.91,3.31-6.76,3.19-10.02,3.27-5.05.12-10.11-.34-15.15-.18-.1,0-.2,0-.3.02v6.64l22.43.02h1.37l-.09.1-.21.22h0c-1.86,1.98-3.96,3.71-6.27,5.18-5.01,3.17-10.94,5.01-17.31,5.01-5.74,0-11.14-1.5-15.82-4.12-3.04-1.71-5.77-3.89-8.1-6.44-.75-.83-1.46-1.69-2.13-2.58-1.51-2.03-2.77-4.24-3.78-6.6-1.41-3.33-2.29-6.94-2.5-10.72-.04-.63-.06-1.28-.06-1.93,0-1.8.15-3.57.43-5.29.41-2.5,1.11-4.9,2.06-7.17,1.04-2.49,2.38-4.83,3.99-6.97.46-.62.94-1.23,1.45-1.81,2.49-2.86,5.48-5.28,8.83-7.13,4.63-2.56,9.96-4.02,15.62-4.02,6.49,0,12.52,1.9,17.58,5.18,3.06,1.98,5.76,4.47,7.99,7.33.31.4.61.8.9,1.21,0,0-.02,0-.03,0-8.19-1.25-17.77-1.66-26.48-1.68,0,.98.02,1.97.04,2.96l.04,3.66c.27-.13.83-.02,1.12-.02.91,0,1.81.02,2.72.03,2.38.04,4.72.13,7.09.11,2.47-.02,4.95.04,7.41.38,3.8.52,7.88,1.76,10.73,4.44,3.4,3.19,3.23,7.26,3.07,12.44"></path>
          <path fill="#7C9CB6" d="M6.51,55.13c.69.22,9.09,2.75,32.36,2.37v-6.75c-6.57-.05-13.26,0-19.83-.07-1.77-.02-3.58.05-5.32-.31-.56-.12-1.13-.29-1.67-.54h0c-2.13-.61-3.68-2.45-3.68-4.62,0-2.34,1.79-4.29,4.19-4.74h.02c1.93-.63,4.26-.69,6.06-.84,1.2-.1,2.39-.16,3.59-.21,1.83-.07,3.66-.1,5.5-.11,3.71,0,11.08.24,11.11.24l-.04-3.66-.04-2.96c-11.99-.03-22.34.66-25.13.87h0s-11.31-.33-13.1,12.98c0,0-.28,1.45-.43,4.05-.02.16-.02.34-.04.52,0,.15,0,.3-.02.46-.01.25-.01.51-.02.77,0,.25,0,.51,0,.77C0,53.55,0,53.76,0,53.96v.29c0,.29.03.58.04.86,0,.07,0,.15.01.23,0,.04,0,.07,0,.1.05,1,.13,2,.26,2.98.19,1.5.47,2.97.84,4.41.11.37.24.74.37,1.1.1.27.2.52.32.78l-.1-.06c3.67,10.88,13.1,10.46,13.1,10.46l24.01.03v-6.64c0-.15-19.78.06-21.51-.06-1.68-.12-3.4-.33-4.93-1.03-4.39-1.96-5.73-8.01-5.96-12.31,0,0,0,0,.02,0,0,0,.01,0,.02,0M6.44,52v-.05s0-.01,0-.04c0,.04,0,.07,0,.1"></path>
        </g>
      </g>
    </g>
  </g>
</svg>