<?xml version="1.0"?>
<svg id="Layer_1" data-name="Layer 1" xmlns="http://www.w3.org/2000/svg" version="1.1" xmlns:xlink="http://www.w3.org/1999/xlink" viewBox="0 0 500 151.35">
  <defs>
    
    <clipPath id="clippath">
      <rect class="cls-2" width="500" height="151.35"></rect>
    </clipPath>
    <clipPath id="clippath-1">
      <rect class="cls-2" y="0" width="500" height="151.35"></rect>
    </clipPath>
  </defs>
  <g id="Artwork_14" data-name="Artwork 14">
    <g class="cls-8">
      <polygon class="cls-5" points="14.56 3.05 483.28 3.05 494.44 9.64 496.95 18.73 483.33 97.9 474.17 103.55 452.73 103.55 23 103.55 14.56 96.58 3.05 16.18 7.35 6.07 14.56 3.05"></polygon>
      <polygon class="cls-1" points="35.06 103.15 464.25 103.15 464.25 135.69 460.38 145.79 452.33 148.3 41.09 148.3 35.75 140.64 35.06 103.15"></polygon>
      <g class="cls-7">
        <path class="cls-6" d="M14.56,3.05h470.34s12.06,2.41,12.06,15.68l-12.25,75.83c-.42,2.57-2.06,4.8-4.42,5.91-3.09,1.44-7.84,3.09-13.48,3.09H23s-6.83-.72-8.44-9.74c-1.35-7.58-8.95-58.98-11.34-75.17-.68-4.61.74-9.39,4.14-12.57,1.82-1.71,4.2-3.02,7.2-3.02Z"></path>
        <path class="cls-6" d="M35.47,103.55v35.38s.52,8.31,7.36,9.38h413.52s7.5-2.41,7.5-10.72v-34.04"></path>
        <path class="cls-3" d="M148.71,88.68c0,1.36-.48,2.55-1.45,3.58-.97,1.03-2.15,1.54-3.54,1.54h-14.21l.37-.24v-17.99l-.29-.26h13.58c1.43,0,2.59.42,3.48,1.26.89.84,1.33,1.91,1.33,3.24v.39c0,.79-.2,1.49-.59,2.1-.39.61-.96,1.11-1.71,1.52-.07.04-.11.1-.11.18s.04.15.11.18c1.18.53,2,1.17,2.46,1.93.39.65.58,1.51.58,2.56M144.32,80.31c0-.6-.22-1.09-.67-1.47-.45-.38-.99-.57-1.63-.57h-8.51v4.25h8.77c.56,0,1.04-.24,1.44-.7.39-.47.59-.97.59-1.52M144.8,88.34c0-.79-.2-1.41-.61-1.85-.49-.55-1.28-.82-2.35-.82h-8.24v4.99h8.32c.86,0,1.56-.2,2.09-.61.53-.41.79-.98.79-1.72"></path>
        <path class="cls-3" d="M170.27,75.31l-.29.26v12.36c0,2.32-.96,4-2.88,5.02-1.53.81-3.7,1.22-6.5,1.22-3.06,0-5.39-.45-6.97-1.35-1.76-1-2.64-2.56-2.64-4.68v-12.58l-.29-.26h4.41l-.4.26v12.39c0,1.16.73,2.02,2.19,2.56,1,.37,2.14.55,3.41.55,1.59,0,2.85-.18,3.8-.55,1.29-.49,1.93-1.31,1.93-2.46v-12.5l-.29-.26h4.52Z"></path>
        <polygon class="cls-3" points="177.45 93.81 172.83 93.81 173.2 93.57 173.2 75.58 172.88 75.31 177.37 75.31 177.08 75.58 177.08 93.57 177.45 93.81"></polygon>
        <polygon class="cls-3" points="197.05 94.17 196.63 93.81 179.88 93.81 180.25 93.57 180.25 75.58 179.96 75.31 184.53 75.31 184.24 75.58 184.24 90.71 196.63 90.71 197.05 90.32 197.05 94.17"></polygon>
        <polygon class="cls-3" points="216.66 78.88 216.29 78.46 209.5 78.46 209.5 93.57 209.87 93.81 205.24 93.81 205.61 93.57 205.61 78.46 198.72 78.46 198.38 78.88 198.38 74.94 198.72 75.31 216.29 75.31 216.66 74.94 216.66 78.88"></polygon>
        <polygon class="cls-3" points="250.98 78.88 250.61 78.46 243.82 78.46 243.82 93.57 244.19 93.81 239.56 93.81 239.93 93.57 239.93 78.46 233.04 78.46 232.69 78.88 232.69 74.94 233.04 75.31 250.61 75.31 250.98 74.94 250.98 78.88"></polygon>
        <path class="cls-3" d="M272.88,83.53c0,.21,0,.43.03.66.02.23.03.41.03.56,0,2.98-1.05,5.3-3.14,6.97-1.89,1.52-4.27,2.27-7.16,2.27s-5.43-.88-7.37-2.64c-2.06-1.87-3.09-4.35-3.09-7.45,0-2.77,1.04-4.99,3.12-6.69,1.94-1.58,4.32-2.38,7.16-2.38s5.2.67,7,2.01c2.02,1.5,3.17,3.73,3.43,6.68M269.37,84.45c0-1.83-.68-3.37-2.05-4.61s-2.99-1.86-4.87-1.86-3.34.61-4.64,1.84c-1.29,1.22-1.94,2.71-1.94,4.45s.69,3.35,2.06,4.6c1.37,1.25,3,1.88,4.89,1.88,1.78,0,3.32-.6,4.61-1.81,1.3-1.21,1.94-2.7,1.94-4.48"></path>
        <polygon class="cls-3" points="306.85 94.17 306.43 93.81 289.68 93.81 290.05 93.57 290.05 75.58 289.76 75.31 294.33 75.31 294.04 75.58 294.04 90.71 306.43 90.71 306.85 90.32 306.85 94.17"></polygon>
        <path class="cls-3" d="M328.92,93.81h-5.07l.37-.24-2.3-4.49h-8.24l-2.11,4.52.34.21h-4.47l.37-.24,7.77-17.99-.29-.26h4.83l-.26.26,8.69,17.99.37.24ZM320.59,85.93l-3.04-6.13-2.67,6.13h5.71Z"></path>
        <path class="cls-3" d="M348.44,77.24l-2.27,3.67.03-.48c0-.35-.7-.82-2.09-1.4-1.64-.69-3.28-1.03-4.94-1.03-2.06,0-3.52.3-4.36.9-.56.39-.85.88-.85,1.48-.09.91,1.1,1.51,3.57,1.8,3.93.44,6.27.77,7.03,1,2.55.77,3.83,2.23,3.83,4.36,0,.14-.01.29-.03.44-.02.15-.03.27-.03.36-.21,1.85-.95,3.25-2.22,4.2-1.51,1.13-3.84,1.69-6.97,1.69-1.6,0-3.22-.26-4.84-.77-1-.32-2.1-.77-3.3-1.37-.9-.44-1.38-.64-1.45-.61l-.39.24,2.22-3.59-.03.48c0,.25.71.67,2.11,1.27,1.8.76,3.72,1.13,5.76,1.13,1.6,0,2.85-.23,3.73-.68.88-.46,1.32-1.12,1.32-1.98.11-1.09-1.05-1.78-3.49-2.06-4.08-.48-6.39-.79-6.92-.95-2.52-.79-3.78-2.34-3.78-4.65,0-1.71.77-3.06,2.32-4.07,1.64-1.06,3.93-1.59,6.87-1.59,1.75,0,3.39.28,4.94.85,1.27.53,2.54,1.05,3.8,1.56l.42-.19Z"></path>
        <polygon class="cls-3" points="367.91 78.88 367.54 78.46 360.75 78.46 360.75 93.57 361.12 93.81 356.5 93.81 356.87 93.57 356.87 78.46 349.97 78.46 349.63 78.88 349.63 74.94 349.97 75.31 367.54 75.31 367.91 74.94 367.91 78.88"></polygon>
        <polygon class="cls-4" points="62.51 135.69 56.69 114.77 61.72 114.77 65.39 129.14 69.84 114.77 75.68 114.77 79.95 129.38 83.69 114.77 88.63 114.77 82.72 135.69 77.51 135.69 72.66 120.05 67.83 135.69 62.51 135.69"></polygon>
        <polygon class="cls-4" points="94.59 135.69 88.78 114.77 93.81 114.77 97.48 129.14 101.93 114.77 107.77 114.77 112.04 129.38 115.77 114.77 120.72 114.77 114.81 135.69 109.6 135.69 104.75 120.05 99.92 135.69 94.59 135.69"></polygon>
        <polygon class="cls-4" points="126.68 135.69 120.87 114.77 125.9 114.77 129.57 129.14 134.02 114.77 139.86 114.77 144.12 129.38 147.86 114.77 152.81 114.77 146.9 135.69 141.69 135.69 136.84 120.05 132.01 135.69 126.68 135.69"></polygon>
        <rect class="cls-4" x="153.41" y="131.68" width="4.66" height="4.01"></rect>
        <path class="cls-4" d="M161.64,128.89l4.78-.4c.29,1.38.87,2.39,1.75,3.04.88.65,2.07.97,3.56.97,1.58,0,2.77-.28,3.58-.86.8-.58,1.2-1.25,1.2-2.02,0-.49-.17-.91-.51-1.26-.34-.35-.93-.65-1.77-.91-.58-.17-1.89-.47-3.93-.91-2.64-.56-4.48-1.25-5.54-2.07-1.5-1.15-2.24-2.55-2.24-4.21,0-1.06.35-2.06,1.05-2.99.7-.93,1.71-1.63,3.04-2.12,1.32-.49,2.92-.73,4.79-.73,3.05,0,5.35.58,6.9,1.73,1.54,1.15,2.36,2.69,2.43,4.61l-4.91.19c-.21-1.08-.66-1.85-1.35-2.32-.69-.47-1.73-.71-3.11-.71s-2.55.25-3.35.76c-.52.32-.78.76-.78,1.3,0,.49.24.92.73,1.27.62.45,2.12.91,4.51,1.4,2.39.49,4.16.99,5.3,1.51,1.15.52,2.04,1.23,2.69,2.13.65.9.97,2.01.97,3.33,0,1.2-.39,2.32-1.16,3.37-.77,1.04-1.87,1.82-3.29,2.33-1.42.51-3.18.76-5.3.76-3.07,0-5.44-.61-7.09-1.83-1.65-1.22-2.63-3-2.95-5.34"></path>
        <path class="cls-4" d="M185.54,114.77h8.98c2.03,0,3.57.13,4.63.4,1.43.36,2.65,1,3.67,1.93,1.02.92,1.79,2.05,2.32,3.39.53,1.34.8,2.99.8,4.94,0,1.72-.25,3.21-.75,4.45-.61,1.52-1.48,2.75-2.61,3.7-.85.71-2,1.27-3.45,1.67-1.09.29-2.53.44-4.35.44h-9.25v-20.92ZM190.45,118.31v13.85h3.67c1.37,0,2.36-.07,2.97-.2.8-.17,1.46-.46,1.98-.87s.96-1.08,1.29-2.02c.33-.94.5-2.21.5-3.83s-.16-2.86-.5-3.73c-.33-.87-.8-1.54-1.39-2.03-.6-.48-1.36-.81-2.27-.98-.69-.13-2.03-.2-4.03-.2h-2.21Z"></path>
        <path class="cls-4" d="M224.83,131.97v3.73h-16.35c.18-1.41.71-2.74,1.59-4,.88-1.26,2.63-2.93,5.25-5.01,2.1-1.68,3.39-2.83,3.87-3.43.64-.83.96-1.65.96-2.45,0-.89-.28-1.58-.84-2.06-.56-.48-1.33-.72-2.31-.72s-1.75.25-2.32.76c-.58.5-.91,1.34-1,2.51l-4.65-.4c.28-2.21,1.15-3.79,2.61-4.75,1.46-.96,3.29-1.44,5.48-1.44,2.4,0,4.29.55,5.66,1.67,1.37,1.11,2.06,2.5,2.06,4.15,0,.94-.2,1.84-.59,2.69-.39.85-1.02,1.74-1.87,2.67-.56.62-1.58,1.51-3.05,2.67-1.47,1.16-2.4,1.93-2.8,2.31-.39.38-.71.75-.96,1.11h9.26Z"></path>
        <polygon class="cls-4" points="229.08 135.69 229.08 114.77 234 114.77 234 124.06 243.92 114.77 250.53 114.77 241.36 122.92 251.03 135.69 244.67 135.69 237.98 125.87 234 129.37 234 135.69 229.08 135.69"></polygon>
        <polygon class="cls-4" points="259.77 135.69 251.08 114.77 256.4 114.77 262.56 130.26 268.52 114.77 273.73 114.77 265.02 135.69 259.77 135.69"></polygon>
        <path class="cls-4" d="M295.66,135.69h-5.34l-2.13-4.75h-9.73l-2.01,4.75h-5.21l9.48-20.92h5.19l9.74,20.92ZM286.62,127.42l-3.35-7.76-3.29,7.76h6.64Z"></path>
        <polygon class="cls-4" points="298.4 135.69 298.4 114.94 303.32 114.94 303.32 132.17 315.53 132.17 315.53 135.69 298.4 135.69"></polygon>
        <polygon class="cls-4" points="319.03 135.69 319.03 114.77 337.08 114.77 337.08 118.31 323.95 118.31 323.95 122.95 336.17 122.95 336.17 126.47 323.95 126.47 323.95 132.17 337.54 132.17 337.54 135.69 319.03 135.69"></polygon>
        <polygon class="cls-4" points="347.19 135.69 347.19 118.31 339.97 118.31 339.97 114.77 359.31 114.77 359.31 118.31 352.1 118.31 352.1 135.69 347.19 135.69"></polygon>
        <rect class="cls-4" x="358.67" y="131.68" width="4.67" height="4.01"></rect>
        <path class="cls-4" d="M383.72,128l4.77,1.3c-.73,2.28-1.94,3.98-3.64,5.09-1.7,1.11-3.86,1.66-6.47,1.66-3.23,0-5.89-.95-7.97-2.85s-3.12-4.49-3.12-7.78c0-3.48,1.05-6.19,3.14-8.11s4.84-2.89,8.25-2.89c2.98,0,5.39.76,7.25,2.27,1.11.89,1.94,2.18,2.49,3.85l-4.86,1c-.29-1.09-.89-1.94-1.8-2.57-.91-.63-2.02-.94-3.33-.94-1.8,0-3.27.55-4.39,1.67-1.12,1.11-1.68,2.92-1.68,5.41,0,2.65.55,4.53,1.66,5.65,1.11,1.12,2.54,1.69,4.31,1.69,1.3,0,2.43-.36,3.37-1.07.94-.71,1.62-1.84,2.02-3.37"></path>
        <path class="cls-4" d="M391.71,125.36c0-2.13.37-3.92,1.11-5.37.55-1.07,1.31-2.02,2.26-2.87.96-.85,2.01-1.48,3.15-1.88,1.52-.55,3.26-.83,5.25-.83,3.59,0,6.45.96,8.61,2.87,2.15,1.91,3.23,4.57,3.23,7.98s-1.07,6.02-3.2,7.93c-2.14,1.91-4.99,2.86-8.57,2.86s-6.5-.95-8.63-2.85c-2.14-1.9-3.2-4.51-3.2-7.84M396.77,125.22c0,2.37.64,4.16,1.91,5.39,1.27,1.22,2.89,1.84,4.85,1.84s3.57-.61,4.82-1.82c1.26-1.21,1.88-3.03,1.88-5.46s-.61-4.19-1.83-5.37c-1.22-1.18-2.85-1.77-4.87-1.77s-3.66.6-4.9,1.79c-1.24,1.2-1.86,2.99-1.86,5.4"></path>
        <polygon class="cls-4" points="419.08 135.69 419.08 114.77 426.43 114.77 430.85 129.04 435.21 114.77 442.58 114.77 442.58 135.69 438.02 135.69 438.02 119.22 433.19 135.69 428.46 135.69 423.64 119.22 423.64 135.69 419.08 135.69"></polygon>
        <path class="cls-4" d="M79.85,66.82h-38.93c-2.7,0-5.19-1.94-5.42-4.63-.26-3.01,2.11-5.53,5.06-5.53h37.48c1.91,0,3.46-1.55,3.46-3.46v-20.57c0-5.97,4.84-10.81,10.81-10.81h38.47c2.7,0,5.19,1.94,5.42,4.63.26,3.01-2.1,5.53-5.06,5.53h-36.75c-1.51,0-2.73,1.22-2.73,2.73v20.3c0,6.53-5.29,11.81-11.81,11.81"></path>
        <path class="cls-4" d="M308.54,66.82h38.93c2.7,0,5.19-1.94,5.42-4.63.26-3.01-2.11-5.53-5.06-5.53h-37.48c-1.91,0-3.46-1.55-3.46-3.46v-20.57c0-5.97-4.84-10.81-10.81-10.81h-38.47c-2.7,0-5.19,1.94-5.42,4.63-.26,3.01,2.1,5.53,5.06,5.53h36.75c1.51,0,2.73,1.22,2.73,2.73v20.3c0,6.53,5.29,11.81,11.81,11.81"></path>
        <path class="cls-4" d="M241.81,56.68c0,5.6-4.54,10.14-10.14,10.14h-82.46l-1.25-.79c-3.06-1.95-8.24-7.59-8.24-16.35s6.91-14.71,11-16.56l1-.45h55.68c2.81,0,5.08,2.27,5.08,5.08s-2.27,5.08-5.08,5.08h-50.29c-3.2,0-6.22,2.02-7.01,5.12-.14.54-.21,1.11-.21,1.73v.11c.03,3.86,3.37,6.87,7.23,6.87h74.54v-30.56c0-2.81,2.27-5.08,5.08-5.08s5.08,2.27,5.08,5.08v30.58Z"></path>
        <path class="cls-4" d="M452.72,39.88c-.26-.03-.53-.05-.79-.05h-19.83c1.27-4.83,1.24-10.71.99-14.76-.14-2.29-2.5-4.06-5.33-3.93-2.8.12-4.96,2.06-4.81,4.35.35,5.62-.23,11.76-1.24,14.34h-49.32v-14.55c0-2.29-2.27-4.15-5.08-4.15s-5.08,1.86-5.08,4.15v37.39c0,2.29,2.27,4.15,5.08,4.15s5.08-1.86,5.08-4.15v-12.78h78.99c1.14.27,2.73,1.09,2.73,3.51v9.28c0,2.29,2.27,4.15,5.08,4.15s5.08-1.86,5.08-4.15v-11.04c0-8.13-7.54-11.24-11.53-11.75"></path>
      </g>
    </g>
  </g>
</svg>