<?xml version="1.0"?>
<svg id="Layer_1" data-name="Layer 1" xmlns="http://www.w3.org/2000/svg" version="1.1" xmlns:xlink="http://www.w3.org/1999/xlink" viewBox="0 0 500 103.57">
  <defs>
    
    <clipPath id="clippath">
      <rect class="cls-1" width="500" height="103.57"></rect>
    </clipPath>
    <clipPath id="clippath-1">
      <rect class="cls-1" y="0" width="500" height="103.57"></rect>
    </clipPath>
  </defs>
  <g id="Artwork_47" data-name="Artwork 47">
    <g class="cls-6">
      <polygon class="cls-2" points="87.92 78.33 79.58 78.33 79.58 25.24 87.92 25.24 87.92 47.99 97.4 47.99 97.4 25.24 105.9 25.24 105.9 78.33 97.4 78.33 97.4 55.58 87.92 55.58 87.92 78.33"></polygon>
      <polygon class="cls-2" points="121.67 60.74 111.13 25.24 119.85 25.24 126.22 49.43 132.59 25.24 140.55 25.24 130.01 60.74 130.01 78.33 121.67 78.33 121.67 60.74"></polygon>
      <g class="cls-5">
        <path class="cls-2" d="M145.78,25.24h13.2c8.34,0,12.44,4.63,12.44,13.12v26.85c0,8.49-4.1,13.12-12.44,13.12h-13.2V25.24ZM154.12,32.82v37.92h4.7c2.66,0,4.25-1.36,4.25-5.16v-27.61c0-3.79-1.59-5.16-4.25-5.16h-4.7Z"></path>
        <path class="cls-2" d="M196.06,78.33c-.45-1.36-.76-2.2-.76-6.52v-8.34c0-4.93-1.67-6.75-5.46-6.75h-2.88v21.61h-8.34V25.24h12.59c8.65,0,12.36,4.02,12.36,12.21v4.17c0,5.46-1.75,9.03-5.46,10.77,4.17,1.75,5.54,5.76,5.54,11.3v8.19c0,2.58.08,4.47.91,6.44h-8.5ZM186.96,32.82v16.31h3.26c3.11,0,5.01-1.36,5.01-5.61v-5.23c0-3.79-1.29-5.46-4.25-5.46h-4.02Z"></path>
        <path class="cls-2" d="M238,78.33h-8.42l-1.44-9.63h-10.24l-1.44,9.63h-7.66l8.5-53.09h12.21l8.5,53.09ZM218.96,61.49h8.04l-4.02-26.85-4.02,26.85Z"></path>
        <polygon class="cls-2" points="241.33 25.24 267.11 25.24 267.11 32.82 258.39 32.82 258.39 78.33 250.05 78.33 250.05 32.82 241.33 32.82 241.33 25.24"></polygon>
        <rect class="cls-2" x="272.64" y="25.24" width="8.34" height="53.09"></rect>
        <path class="cls-2" d="M288.26,37.98c0-8.49,4.48-13.35,12.67-13.35s12.67,4.85,12.67,13.35v27.61c0,8.49-4.48,13.35-12.67,13.35s-12.67-4.85-12.67-13.35v-27.61ZM296.61,66.12c0,3.79,1.67,5.23,4.32,5.23s4.32-1.44,4.32-5.23v-28.67c0-3.79-1.67-5.23-4.32-5.23s-4.32,1.44-4.32,5.23v28.67Z"></path>
        <polygon class="cls-2" points="328.3 39.88 328.3 78.33 320.8 78.33 320.8 25.24 331.26 25.24 339.83 57.02 339.83 25.24 347.27 25.24 347.27 78.33 338.69 78.33 328.3 39.88"></polygon>
        <path class="cls-4" d="M361.23,78.51V25.06h15.98c1.18,0,2.3.24,3.36.71,1.06.47,1.98,1.1,2.76,1.87.78.77,1.39,1.7,1.84,2.75.45,1.06.67,2.18.67,3.36v36.12c0,1.18-.22,2.3-.67,3.36-.45,1.06-1.06,1.98-1.84,2.76-.78.78-1.7,1.39-2.76,1.84-1.06.45-2.18.67-3.36.67h-15.98ZM367.45,72.78h9.47c.75,0,1.39-.26,1.91-.78.52-.52.78-1.16.78-1.91v-36.55c0-.75-.26-1.39-.78-1.91-.52-.52-1.16-.78-1.91-.78h-9.47v41.92Z"></path>
        <polygon class="cls-4" points="391.49 78.51 391.49 25.06 412.91 25.06 412.91 30.86 397.71 30.86 397.71 50.37 410.93 50.37 410.93 56.1 397.71 56.1 397.71 72.78 412.84 72.78 412.84 78.51 391.49 78.51"></polygon>
        <path class="cls-4" d="M424.57,78.51h-6.22V25.13h15.98c1.18,0,2.3.23,3.36.67,1.06.45,1.98,1.06,2.76,1.84.78.78,1.39,1.7,1.84,2.76.45,1.06.67,2.18.67,3.36v19.58c0,1.08-.22,2.16-.67,3.22-.45,1.06-1.06,1.99-1.84,2.79-.78.8-1.7,1.45-2.76,1.95-1.06.49-2.18.74-3.36.74h-9.76v16.47ZM434.12,56.31c.75,0,1.38-.27,1.87-.81.49-.54.74-1.17.74-1.87v-20.08c0-.75-.25-1.39-.74-1.91s-1.12-.78-1.87-.78h-9.54v25.45h9.54Z"></path>
        <path class="cls-4" d="M473.07,69.88c0,1.18-.22,2.3-.67,3.36-.45,1.06-1.06,1.98-1.84,2.76-.78.78-1.7,1.39-2.76,1.84-1.06.45-2.18.67-3.36.67h-7.28c-1.23,0-2.36-.22-3.39-.67-1.04-.45-1.96-1.06-2.76-1.84-.8-.78-1.43-1.7-1.87-2.76-.45-1.06-.67-2.18-.67-3.36v-36.12c0-1.18.22-2.3.67-3.36.45-1.06,1.07-1.98,1.87-2.76.8-.78,1.72-1.39,2.76-1.84,1.04-.45,2.17-.67,3.39-.67h7.28c1.18,0,2.3.22,3.36.67s1.98,1.06,2.76,1.84c.78.78,1.39,1.7,1.84,2.76.45,1.06.67,2.18.67,3.36v36.12ZM454.69,70.09c0,.76.26,1.39.78,1.91.52.52,1.16.78,1.91.78h6.79c.75,0,1.39-.26,1.91-.78.52-.52.78-1.15.78-1.91v-36.55c0-.75-.26-1.39-.78-1.91-.52-.52-1.16-.78-1.91-.78h-6.79c-.75,0-1.39.26-1.91.78-.52.52-.78,1.15-.78,1.91v36.55Z"></path>
        <polygon class="cls-4" points="500 25.06 500 30.86 491.09 30.86 491.09 78.51 484.94 78.51 484.94 30.86 476.04 30.86 476.04 25.06 500 25.06"></polygon>
        <path class="cls-2" d="M63.19,51.78h0L33.89,0l-.07.13,21.21,45.92c9.46,20.47-5.93,44.09-27.7,42.52-15.29-1.11-25.66-14.08-26.22-28.24-5.47,21.01,9.87,43.25,32.78,43.25,26.05,0,42.33-28.77,29.31-51.78"></path>
        <path class="cls-3" d="M29.39,12.42l19.66,34.06c8.74,15.13-2.18,34.05-19.66,34.05S.98,61.61,9.72,46.48L29.39,12.42Z"></path>
      </g>
    </g>
  </g>
</svg>