<?xml version="1.0"?>
<svg id="Layer_1" data-name="Layer 1" xmlns="http://www.w3.org/2000/svg" viewBox="0 0 500 151.35">
  <path d="M466.8,104.05H22.99c-.12-.01-7.28-.87-8.93-10.15-1.29-7.24-8.36-54.99-11.34-75.18-.73-4.95.87-9.81,4.29-13.01,2.09-1.97,4.46-3.02,7.04-3.14h0s.5-.02.5-.02h470.34c.22.03,12.56,2.66,12.56,16.18l-12.26,75.91c-.45,2.76-2.21,5.11-4.7,6.28-3.07,1.43-7.94,3.14-13.69,3.14ZM14.55,3.55c-2.51,0-4.82.97-6.86,2.88-3.18,2.97-4.67,7.51-3.99,12.13,2.98,20.19,10.05,67.93,11.34,75.16,1.53,8.55,7.94,9.32,8,9.33h443.76c5.57,0,10.29-1.66,13.27-3.05,2.19-1.03,3.74-3.1,4.14-5.54l12.25-75.83c0-12.61-11.19-15.01-11.67-15.11H15.05v.02h-.5Z" style="fill: #fff;"></path>
  <path d="M456.42,148.8H42.82c-7.23-1.12-7.85-9.76-7.86-9.85v-35.41s1,0,1,0v35.38c.02.29.58,7.89,6.94,8.89h413.36c.79-.28,7.08-2.72,7.08-10.23v-34.04h1v34.04c0,8.58-7.77,11.17-7.85,11.2l-.08.02Z" style="fill: #fff;"></path>
  <path d="M148.7,88.68c0,1.36-.48,2.55-1.45,3.58s-2.15,1.54-3.54,1.54h-14.21l.37-.24v-17.99l-.29-.26h13.58c1.43,0,2.59.42,3.48,1.26.89.84,1.33,1.91,1.33,3.24v.39c0,.79-.2,1.49-.59,2.1s-.96,1.11-1.71,1.52c-.07.04-.11.1-.11.18s.04.15.11.18c1.18.53,2,1.17,2.46,1.93.39.65.58,1.51.58,2.56M144.31,80.31c0-.6-.22-1.09-.67-1.47-.45-.38-.99-.57-1.63-.57h-8.51v4.25h8.77c.56,0,1.04-.24,1.44-.7.39-.47.59-.97.59-1.52M144.79,88.34c0-.79-.2-1.41-.61-1.85-.49-.55-1.28-.82-2.35-.82h-8.24v4.99h8.32c.86,0,1.56-.2,2.09-.61s.79-.98.79-1.72" style="fill: #fff;"></path>
  <path d="M170.26,75.31l-.29.26v12.36c0,2.32-.96,4-2.88,5.02-1.53.81-3.7,1.22-6.5,1.22-3.06,0-5.39-.45-6.97-1.35-1.76-1-2.64-2.56-2.64-4.68v-12.58l-.29-.26h4.41l-.4.26v12.39c0,1.16.73,2.02,2.19,2.56,1,.37,2.14.55,3.41.55,1.59,0,2.85-.18,3.8-.55,1.29-.49,1.93-1.31,1.93-2.46v-12.5l-.29-.26h4.52v.02Z" style="fill: #fff;"></path>
  <polygon points="177.44 93.81 172.82 93.81 173.19 93.57 173.19 75.58 172.87 75.31 177.36 75.31 177.07 75.58 177.07 93.57 177.44 93.81" style="fill: #fff;"></polygon>
  <polygon points="197.04 94.17 196.62 93.81 179.87 93.81 180.24 93.57 180.24 75.58 179.95 75.31 184.52 75.31 184.23 75.58 184.23 90.71 196.62 90.71 197.04 90.32 197.04 94.17" style="fill: #fff;"></polygon>
  <polygon points="216.65 78.88 216.28 78.46 209.49 78.46 209.49 93.57 209.86 93.81 205.23 93.81 205.6 93.57 205.6 78.46 198.71 78.46 198.37 78.88 198.37 74.94 198.71 75.31 216.28 75.31 216.65 74.94 216.65 78.88" style="fill: #fff;"></polygon>
  <polygon points="250.97 78.88 250.6 78.46 243.81 78.46 243.81 93.57 244.18 93.81 239.55 93.81 239.92 93.57 239.92 78.46 233.03 78.46 232.68 78.88 232.68 74.94 233.03 75.31 250.6 75.31 250.97 74.94 250.97 78.88" style="fill: #fff;"></polygon>
  <path d="M272.87,83.53c0,.21,0,.43.03.66.02.23.03.41.03.56,0,2.98-1.05,5.3-3.14,6.97-1.89,1.52-4.27,2.27-7.16,2.27s-5.43-.88-7.37-2.64c-2.06-1.87-3.09-4.35-3.09-7.45,0-2.77,1.04-4.99,3.12-6.69,1.94-1.58,4.32-2.38,7.16-2.38s5.2.67,7,2.01c2.02,1.5,3.17,3.73,3.43,6.68M269.36,84.45c0-1.83-.68-3.37-2.05-4.61s-2.99-1.86-4.87-1.86-3.34.61-4.64,1.84c-1.29,1.22-1.94,2.71-1.94,4.45s.69,3.35,2.06,4.6,3,1.88,4.89,1.88c1.78,0,3.32-.6,4.61-1.81,1.3-1.21,1.94-2.7,1.94-4.48" style="fill: #fff;"></path>
  <polygon points="306.84 94.17 306.42 93.81 289.67 93.81 290.04 93.57 290.04 75.58 289.75 75.31 294.32 75.31 294.03 75.58 294.03 90.71 306.42 90.71 306.84 90.32 306.84 94.17" style="fill: #fff;"></polygon>
  <path d="M328.91,93.81h-5.07l.37-.24-2.3-4.49h-8.24l-2.11,4.52.34.21h-4.47l.37-.24,7.77-17.99-.29-.26h4.83l-.26.26,8.69,17.99.37.24h0ZM320.58,85.93l-3.04-6.13-2.67,6.13h5.71Z" style="fill: #fff;"></path>
  <path d="M348.43,77.24l-2.27,3.67.03-.48c0-.35-.7-.82-2.09-1.4-1.64-.69-3.28-1.03-4.94-1.03-2.06,0-3.52.3-4.36.9-.56.39-.85.88-.85,1.48-.09.91,1.1,1.51,3.57,1.8,3.93.44,6.27.77,7.03,1,2.55.77,3.83,2.23,3.83,4.36,0,.14-.01.29-.03.44s-.03.27-.03.36c-.21,1.85-.95,3.25-2.22,4.2-1.51,1.13-3.84,1.69-6.97,1.69-1.6,0-3.22-.26-4.84-.77-1-.32-2.1-.77-3.3-1.37-.9-.44-1.38-.64-1.45-.61l-.39.24,2.22-3.59-.03.48c0,.25.71.67,2.11,1.27,1.8.76,3.72,1.13,5.76,1.13,1.6,0,2.85-.23,3.73-.68.88-.46,1.32-1.12,1.32-1.98.11-1.09-1.05-1.78-3.49-2.06-4.08-.48-6.39-.79-6.92-.95-2.52-.79-3.78-2.34-3.78-4.65,0-1.71.77-3.06,2.32-4.07,1.64-1.06,3.93-1.59,6.87-1.59,1.75,0,3.39.28,4.94.85,1.27.53,2.54,1.05,3.8,1.56l.42-.19h0Z" style="fill: #fff;"></path>
  <polygon points="367.9 78.88 367.53 78.46 360.74 78.46 360.74 93.57 361.11 93.81 356.49 93.81 356.86 93.57 356.86 78.46 349.96 78.46 349.62 78.88 349.62 74.94 349.96 75.31 367.53 75.31 367.9 74.94 367.9 78.88" style="fill: #fff;"></polygon>
  <polygon points="62.5 135.69 56.68 114.77 61.71 114.77 65.38 129.14 69.83 114.77 75.67 114.77 79.94 129.38 83.68 114.77 88.62 114.77 82.71 135.69 77.5 135.69 72.65 120.05 67.82 135.69 62.5 135.69" style="fill: #fff;"></polygon>
  <polygon points="94.58 135.69 88.77 114.77 93.8 114.77 97.47 129.14 101.92 114.77 107.76 114.77 112.03 129.38 115.76 114.77 120.71 114.77 114.8 135.69 109.59 135.69 104.74 120.05 99.91 135.69 94.58 135.69" style="fill: #fff;"></polygon>
  <polygon points="126.67 135.69 120.86 114.77 125.89 114.77 129.56 129.14 134.01 114.77 139.85 114.77 144.11 129.38 147.85 114.77 152.8 114.77 146.89 135.69 141.68 135.69 136.83 120.05 132 135.69 126.67 135.69" style="fill: #fff;"></polygon>
  <rect x="153.4" y="131.68" width="4.66" height="4.01" style="fill: #fff;"></rect>
  <path d="M161.63,128.89l4.78-.4c.29,1.38.87,2.39,1.75,3.04s2.07.97,3.56.97c1.58,0,2.77-.28,3.58-.86.8-.58,1.2-1.25,1.2-2.02,0-.49-.17-.91-.51-1.26-.34-.35-.93-.65-1.77-.91-.58-.17-1.89-.47-3.93-.91-2.64-.56-4.48-1.25-5.54-2.07-1.5-1.15-2.24-2.55-2.24-4.21,0-1.06.35-2.06,1.05-2.99s1.71-1.63,3.04-2.12c1.32-.49,2.92-.73,4.79-.73,3.05,0,5.35.58,6.9,1.73,1.54,1.15,2.36,2.69,2.43,4.61l-4.91.19c-.21-1.08-.66-1.85-1.35-2.32s-1.73-.71-3.11-.71-2.55.25-3.35.76c-.52.32-.78.76-.78,1.3,0,.49.24.92.73,1.27.62.45,2.12.91,4.51,1.4s4.16.99,5.3,1.51c1.15.52,2.04,1.23,2.69,2.13.65.9.97,2.01.97,3.33,0,1.2-.39,2.32-1.16,3.37-.77,1.04-1.87,1.82-3.29,2.33s-3.18.76-5.3.76c-3.07,0-5.44-.61-7.09-1.83s-2.63-3-2.95-5.34" style="fill: #fff;"></path>
  <path d="M185.53,114.77h8.98c2.03,0,3.57.13,4.63.4,1.43.36,2.65,1,3.67,1.93,1.02.92,1.79,2.05,2.32,3.39.53,1.34.8,2.99.8,4.94,0,1.72-.25,3.21-.75,4.45-.61,1.52-1.48,2.75-2.61,3.7-.85.71-2,1.27-3.45,1.67-1.09.29-2.53.44-4.35.44h-9.25v-20.92h0ZM190.44,118.31v13.85h3.67c1.37,0,2.36-.07,2.97-.2.8-.17,1.46-.46,1.98-.87s.96-1.08,1.29-2.02c.33-.94.5-2.21.5-3.83s-.16-2.86-.5-3.73c-.33-.87-.8-1.54-1.39-2.03-.6-.48-1.36-.81-2.27-.98-.69-.13-2.03-.2-4.03-.2h-2.22Z" style="fill: #fff;"></path>
  <path d="M224.82,131.97v3.73h-16.35c.18-1.41.71-2.74,1.59-4,.88-1.26,2.63-2.93,5.25-5.01,2.1-1.68,3.39-2.83,3.87-3.43.64-.83.96-1.65.96-2.45,0-.89-.28-1.58-.84-2.06-.56-.48-1.33-.72-2.31-.72s-1.75.25-2.32.76c-.58.5-.91,1.34-1,2.51l-4.65-.4c.28-2.21,1.15-3.79,2.61-4.75s3.29-1.44,5.48-1.44c2.4,0,4.29.55,5.66,1.67,1.37,1.11,2.06,2.5,2.06,4.15,0,.94-.2,1.84-.59,2.69-.39.85-1.02,1.74-1.87,2.67-.56.62-1.58,1.51-3.05,2.67-1.47,1.16-2.4,1.93-2.8,2.31-.39.38-.71.75-.96,1.11h9.26Z" style="fill: #fff;"></path>
  <polygon points="229.07 135.69 229.07 114.77 233.99 114.77 233.99 124.06 243.91 114.77 250.52 114.77 241.35 122.92 251.02 135.69 244.66 135.69 237.97 125.87 233.99 129.37 233.99 135.69 229.07 135.69" style="fill: #fff;"></polygon>
  <polygon points="259.76 135.69 251.07 114.77 256.39 114.77 262.55 130.26 268.51 114.77 273.72 114.77 265.01 135.69 259.76 135.69" style="fill: #fff;"></polygon>
  <path d="M295.65,135.69h-5.34l-2.13-4.75h-9.73l-2.01,4.75h-5.21l9.48-20.92h5.19l9.74,20.92h.01ZM286.61,127.42l-3.35-7.76-3.29,7.76h6.64Z" style="fill: #fff;"></path>
  <polygon points="298.39 135.69 298.39 114.94 303.31 114.94 303.31 132.17 315.52 132.17 315.52 135.69 298.39 135.69" style="fill: #fff;"></polygon>
  <polygon points="319.02 135.69 319.02 114.77 337.07 114.77 337.07 118.31 323.94 118.31 323.94 122.95 336.16 122.95 336.16 126.47 323.94 126.47 323.94 132.17 337.53 132.17 337.53 135.69 319.02 135.69" style="fill: #fff;"></polygon>
  <polygon points="347.18 135.69 347.18 118.31 339.96 118.31 339.96 114.77 359.3 114.77 359.3 118.31 352.09 118.31 352.09 135.69 347.18 135.69" style="fill: #fff;"></polygon>
  <rect x="358.66" y="131.68" width="4.67" height="4.01" style="fill: #fff;"></rect>
  <path d="M383.71,128l4.77,1.3c-.73,2.28-1.94,3.98-3.64,5.09s-3.86,1.66-6.47,1.66c-3.23,0-5.89-.95-7.97-2.85s-3.12-4.49-3.12-7.78c0-3.48,1.05-6.19,3.14-8.11s4.84-2.89,8.25-2.89c2.98,0,5.39.76,7.25,2.27,1.11.89,1.94,2.18,2.49,3.85l-4.86,1c-.29-1.09-.89-1.94-1.8-2.57-.91-.63-2.02-.94-3.33-.94-1.8,0-3.27.55-4.39,1.67-1.12,1.11-1.68,2.92-1.68,5.41,0,2.65.55,4.53,1.66,5.65,1.11,1.12,2.54,1.69,4.31,1.69,1.3,0,2.43-.36,3.37-1.07s1.62-1.84,2.02-3.37" style="fill: #fff;"></path>
  <path d="M391.7,125.36c0-2.13.37-3.92,1.11-5.37.55-1.07,1.31-2.02,2.26-2.87.96-.85,2.01-1.48,3.15-1.88,1.52-.55,3.26-.83,5.25-.83,3.59,0,6.45.96,8.61,2.87,2.15,1.91,3.23,4.57,3.23,7.98s-1.07,6.02-3.2,7.93c-2.14,1.91-4.99,2.86-8.57,2.86s-6.5-.95-8.63-2.85c-2.14-1.9-3.2-4.51-3.2-7.84M396.76,125.22c0,2.37.64,4.16,1.91,5.39,1.27,1.22,2.89,1.84,4.85,1.84s3.57-.61,4.82-1.82c1.26-1.21,1.88-3.03,1.88-5.46s-.61-4.19-1.83-5.37-2.85-1.77-4.87-1.77-3.66.6-4.9,1.79c-1.24,1.2-1.86,2.99-1.86,5.4" style="fill: #fff;"></path>
  <polygon points="419.07 135.69 419.07 114.77 426.42 114.77 430.84 129.04 435.2 114.77 442.57 114.77 442.57 135.69 438.01 135.69 438.01 119.22 433.18 135.69 428.45 135.69 423.63 119.22 423.63 135.69 419.07 135.69" style="fill: #fff;"></polygon>
  <path d="M79.84,66.82h-38.93c-2.7,0-5.19-1.94-5.42-4.63-.26-3.01,2.11-5.53,5.06-5.53h37.48c1.91,0,3.46-1.55,3.46-3.46v-20.57c0-5.97,4.84-10.81,10.81-10.81h38.47c2.7,0,5.19,1.94,5.42,4.63.26,3.01-2.1,5.53-5.06,5.53h-36.75c-1.51,0-2.73,1.22-2.73,2.73v20.3c0,6.53-5.29,11.81-11.81,11.81" style="fill: #fff;"></path>
  <path d="M308.53,66.82h38.93c2.7,0,5.19-1.94,5.42-4.63.26-3.01-2.11-5.53-5.06-5.53h-37.48c-1.91,0-3.46-1.55-3.46-3.46v-20.57c0-5.97-4.84-10.81-10.81-10.81h-38.47c-2.7,0-5.19,1.94-5.42,4.63-.26,3.01,2.1,5.53,5.06,5.53h36.75c1.51,0,2.73,1.22,2.73,2.73v20.3c0,6.53,5.29,11.81,11.81,11.81" style="fill: #fff;"></path>
  <path d="M241.8,56.68c0,5.6-4.54,10.14-10.14,10.14h-82.46l-1.25-.79c-3.06-1.95-8.24-7.59-8.24-16.35s6.91-14.71,11-16.56l1-.45h55.68c2.81,0,5.08,2.27,5.08,5.08s-2.27,5.08-5.08,5.08h-50.29c-3.2,0-6.22,2.02-7.01,5.12-.14.54-.21,1.11-.21,1.73v.11c.03,3.86,3.37,6.87,7.23,6.87h74.54v-30.56c0-2.81,2.27-5.08,5.08-5.08s5.08,2.27,5.08,5.08v30.58h0Z" style="fill: #fff;"></path>
  <path d="M452.71,39.88c-.26-.03-.53-.05-.79-.05h-19.83c1.27-4.83,1.24-10.71.99-14.76-.14-2.29-2.5-4.06-5.33-3.93-2.8.12-4.96,2.06-4.81,4.35.35,5.62-.23,11.76-1.24,14.34h-49.32v-14.55c0-2.29-2.27-4.15-5.08-4.15s-5.08,1.86-5.08,4.15v37.39c0,2.29,2.27,4.15,5.08,4.15s5.08-1.86,5.08-4.15v-12.78h78.99c1.14.27,2.73,1.09,2.73,3.51v9.28c0,2.29,2.27,4.15,5.08,4.15s5.08-1.86,5.08-4.15v-11.04c0-8.13-7.54-11.24-11.53-11.75" style="fill: #fff;"></path>
</svg>