<?xml version="1.0"?>
<svg id="Layer_1" data-name="Layer 1" xmlns="http://www.w3.org/2000/svg" version="1.1" xmlns:xlink="http://www.w3.org/1999/xlink" viewBox="0 0 500 128.42">
  <defs>
    
    <clipPath id="clippath">
      <rect class="cls-3" width="500" height="128.42"></rect>
    </clipPath>
    <clipPath id="clippath-1">
      <rect class="cls-3" width="500" height="128.42"></rect>
    </clipPath>
  </defs>
  <g id="Artwork_2" data-name="Artwork 2">
    <g class="cls-6">
      <polygon class="cls-2" points="0 27.72 0 33.86 11.2 33.86 11.2 67.48 19.17 67.48 19.17 33.86 30.53 33.86 30.53 27.72 0 27.72"></polygon>
      <g class="cls-5">
        <path class="cls-2" d="M40.08,51.59v15.9h-7.97V27.72h13.76c4.53,0,8.08,1.03,10.64,3.1,2.56,2.07,3.84,4.95,3.84,8.64,0,2.04-.54,3.8-1.63,5.28-1.08,1.48-2.66,2.68-4.74,3.59,2.35.69,4.04,1.85,5.07,3.47,1.03,1.62,1.54,3.62,1.54,6.01v2.92c0,1.11.15,2.27.45,3.48.3,1.21.81,2.11,1.54,2.69v.57h-8.22c-.73-.58-1.2-1.55-1.41-2.9-.21-1.35-.31-2.65-.31-3.91v-2.81c0-1.98-.54-3.53-1.63-4.63-1.08-1.1-2.62-1.65-4.6-1.65h-6.34ZM40.08,45.44h5.65c2.24,0,3.91-.47,5-1.42,1.09-.95,1.64-2.35,1.64-4.21s-.55-3.27-1.65-4.34c-1.1-1.07-2.72-1.61-4.85-1.61h-5.79v11.58Z"></path>
        <path class="cls-2" d="M85.68,58.91h-12.89l-2.68,8.58h-8.33l13.41-39.76h8.17l13.36,39.76h-8.33l-2.7-8.58ZM74.76,52.65h8.99l-4.4-14.01h-.16l-4.42,14.01Z"></path>
        <polygon class="cls-2" points="120.98 50.96 105.72 50.96 105.72 67.48 97.74 67.48 97.74 27.72 123.77 27.72 123.77 33.86 105.72 33.86 105.72 44.82 120.98 44.82 120.98 50.96"></polygon>
        <polygon class="cls-2" points="149.29 50.96 134.03 50.96 134.03 67.48 126.05 67.48 126.05 27.72 152.08 27.72 152.08 33.86 134.03 33.86 134.03 44.82 149.29 44.82 149.29 50.96"></polygon>
        <rect class="cls-2" x="154.91" y="27.72" width="7.97" height="39.76"></rect>
        <path class="cls-2" d="M197.8,54.32l.05.16c.07,4.24-1.22,7.57-3.88,9.97-2.66,2.4-6.33,3.61-11.01,3.61s-8.62-1.53-11.55-4.6c-2.93-3.07-4.4-7.03-4.4-11.89v-7.89c0-4.84,1.43-8.81,4.29-11.89,2.86-3.09,6.61-4.63,11.25-4.63s8.63,1.18,11.36,3.55c2.73,2.37,4.06,5.7,3.99,10l-.05.16h-7.76c0-2.55-.61-4.45-1.84-5.69-1.23-1.25-3.13-1.87-5.69-1.87-2.39,0-4.25.96-5.58,2.88-1.34,1.92-2.01,4.4-2.01,7.44v7.95c0,3.06.71,5.55,2.12,7.48,1.41,1.93,3.37,2.89,5.89,2.89s4.16-.62,5.34-1.87c1.17-1.25,1.76-3.16,1.76-5.75h7.73Z"></path>
        <path class="cls-2" d="M241.72,54.32l.05.16c.07,4.24-1.22,7.57-3.88,9.97-2.66,2.4-6.33,3.61-11.01,3.61s-8.62-1.53-11.55-4.6c-2.93-3.07-4.4-7.03-4.4-11.89v-7.89c0-4.84,1.43-8.81,4.29-11.89,2.86-3.09,6.61-4.63,11.25-4.63s8.63,1.18,11.36,3.55c2.73,2.37,4.06,5.7,3.99,10l-.05.16h-7.76c0-2.55-.61-4.45-1.84-5.69-1.23-1.25-3.13-1.87-5.69-1.87-2.39,0-4.25.96-5.58,2.88-1.34,1.92-2.01,4.4-2.01,7.44v7.95c0,3.06.71,5.55,2.12,7.48,1.41,1.93,3.37,2.89,5.89,2.89s4.16-.62,5.34-1.87c1.17-1.25,1.76-3.16,1.76-5.75h7.73Z"></path>
        <path class="cls-2" d="M276.86,51.18c0,4.9-1.54,8.94-4.62,12.11-3.08,3.18-7.08,4.77-12.02,4.77s-8.9-1.59-11.96-4.78c-3.06-3.19-4.59-7.22-4.59-12.1v-7.16c0-4.86,1.52-8.89,4.57-12.09,3.05-3.2,7.02-4.79,11.92-4.79s8.95,1.6,12.04,4.79c3.09,3.2,4.64,7.22,4.64,12.09v7.16ZM268.91,43.97c0-3.09-.77-5.63-2.32-7.62-1.55-1.98-3.69-2.98-6.42-2.98s-4.79.99-6.3,2.98c-1.5,1.98-2.25,4.52-2.25,7.62v7.21c0,3.15.76,5.72,2.27,7.7s3.62,2.98,6.34,2.98,4.86-.99,6.39-2.98c1.53-1.98,2.29-4.55,2.29-7.7v-7.21Z"></path>
        <polygon class="cls-2" points="312.52 67.48 304.54 67.48 288.51 40.67 288.35 40.69 288.35 67.48 280.37 67.48 280.37 27.72 288.35 27.72 304.38 54.51 304.54 54.48 304.54 27.72 312.52 27.72 312.52 67.48"></polygon>
        <polygon class="cls-2" points="339.76 50.01 325.02 50.01 325.02 61.37 342.55 61.37 342.55 67.48 317.04 67.48 317.04 27.72 342.5 27.72 342.5 33.86 325.02 33.86 325.02 43.86 339.76 43.86 339.76 50.01"></polygon>
        <path class="cls-2" d="M366.08,57.11c0-1.53-.53-2.76-1.6-3.69-1.06-.93-2.94-1.8-5.61-2.62-4.59-1.38-8.07-3.01-10.45-4.89-2.38-1.87-3.56-4.43-3.56-7.67s1.34-5.92,4.01-7.99c2.68-2.07,6.09-3.1,10.24-3.1,4.41,0,7.95,1.11,10.64,3.33s3.98,5.13,3.89,8.74l-.06.16h-7.73c0-1.98-.6-3.51-1.8-4.57s-2.89-1.6-5.05-1.6c-1.97,0-3.49.47-4.56,1.42-1.07.95-1.61,2.16-1.61,3.63,0,1.35.58,2.45,1.75,3.32,1.16.87,3.18,1.78,6.04,2.74,4.37,1.24,7.7,2.85,10,4.85,2.29,1.99,3.44,4.62,3.44,7.88s-1.33,6.09-3.99,8.06c-2.66,1.97-6.17,2.95-10.54,2.95s-7.95-1.06-11.02-3.2c-3.07-2.13-4.56-5.31-4.47-9.53l.06-.16h7.73c0,2.35.69,4.08,2.08,5.19,1.38,1.11,3.26,1.67,5.63,1.67,2.13,0,3.76-.45,4.88-1.34,1.12-.89,1.68-2.08,1.68-3.58"></path>
        <polygon class="cls-1" points="229.3 90.03 219.32 90.03 219.32 100.84 214.11 100.84 214.11 74.84 231.13 74.84 231.13 78.85 219.32 78.85 219.32 86.01 229.3 86.01 229.3 90.03"></polygon>
        <path class="cls-1" d="M255.48,90.18c0,3.2-1.01,5.84-3.02,7.92-2.01,2.08-4.63,3.12-7.86,3.12s-5.82-1.04-7.82-3.13c-2-2.08-3-4.72-3-7.91v-4.68c0-3.18,1-5.81,2.99-7.9,1.99-2.09,4.59-3.14,7.79-3.14s5.85,1.05,7.88,3.14c2.02,2.09,3.03,4.72,3.03,7.9v4.68ZM250.29,85.46c0-2.02-.51-3.68-1.52-4.98-1.01-1.3-2.41-1.95-4.2-1.95s-3.13.65-4.12,1.95c-.98,1.3-1.47,2.96-1.47,4.98v4.71c0,2.06.49,3.74,1.48,5.04.99,1.3,2.37,1.95,4.14,1.95s3.18-.65,4.18-1.95c1-1.3,1.5-2.98,1.5-5.04v-4.71Z"></path>
        <path class="cls-1" d="M264.82,90.44v10.39h-5.21v-26h9c2.96,0,5.28.68,6.96,2.03,1.67,1.35,2.51,3.24,2.51,5.65,0,1.33-.35,2.49-1.06,3.46-.71.97-1.74,1.75-3.1,2.35,1.54.45,2.64,1.21,3.31,2.27.67,1.06,1.01,2.37,1.01,3.93v1.91c0,.73.1,1.49.3,2.28.2.79.53,1.38,1.01,1.76v.37h-5.38c-.48-.38-.78-1.01-.92-1.89-.14-.88-.21-1.73-.21-2.55v-1.84c0-1.3-.35-2.31-1.06-3.03-.71-.72-1.71-1.08-3.01-1.08h-4.14ZM264.82,86.43h3.7c1.46,0,2.55-.31,3.27-.93.71-.62,1.07-1.54,1.07-2.75s-.36-2.14-1.08-2.84c-.72-.7-1.78-1.05-3.17-1.05h-3.79v7.57Z"></path>
        <polygon class="cls-1" points="297.23 96.84 308.88 96.84 308.88 100.84 292.02 100.84 292.02 74.84 297.23 74.84 297.23 96.84"></polygon>
        <polygon class="cls-1" points="327.2 89.41 317.56 89.41 317.56 96.84 329.02 96.84 329.02 100.84 312.34 100.84 312.34 74.84 328.98 74.84 328.98 78.85 317.56 78.85 317.56 85.39 327.2 85.39 327.2 89.41"></polygon>
        <path class="cls-1" d="M346.23,94.05c0-1-.35-1.8-1.04-2.41-.7-.61-1.92-1.18-3.67-1.72-3-.9-5.28-1.97-6.83-3.2-1.55-1.23-2.33-2.9-2.33-5.02s.87-3.87,2.63-5.22c1.75-1.35,3.98-2.03,6.7-2.03,2.88,0,5.2.73,6.96,2.18,1.76,1.45,2.6,3.36,2.54,5.71l-.04.11h-5.05c0-1.3-.39-2.29-1.18-2.99-.79-.7-1.89-1.05-3.3-1.05-1.29,0-2.28.31-2.98.93-.7.62-1.05,1.41-1.05,2.37,0,.88.38,1.61,1.14,2.17.76.57,2.08,1.16,3.95,1.79,2.86.81,5.04,1.87,6.54,3.17,1.5,1.3,2.25,3.02,2.25,5.15s-.87,3.98-2.61,5.27c-1.74,1.29-4.04,1.93-6.89,1.93s-5.2-.7-7.2-2.09c-2.01-1.39-2.98-3.47-2.92-6.23l.04-.11h5.05c0,1.54.45,2.67,1.36,3.39.9.73,2.13,1.09,3.68,1.09,1.39,0,2.46-.29,3.19-.87.73-.58,1.1-1.36,1.1-2.34"></path>
        <path class="cls-1" d="M368.84,94.05c0-1-.35-1.8-1.04-2.41-.7-.61-1.92-1.18-3.67-1.72-3-.9-5.28-1.97-6.83-3.2-1.55-1.23-2.33-2.9-2.33-5.02s.87-3.87,2.63-5.22c1.75-1.35,3.98-2.03,6.7-2.03,2.88,0,5.2.73,6.96,2.18,1.76,1.45,2.6,3.36,2.54,5.71l-.04.11h-5.05c0-1.3-.39-2.29-1.18-2.99-.79-.7-1.89-1.05-3.3-1.05-1.29,0-2.28.31-2.98.93-.7.62-1.05,1.41-1.05,2.37,0,.88.38,1.61,1.14,2.17.76.57,2.08,1.16,3.95,1.79,2.86.81,5.04,1.87,6.54,3.17,1.5,1.3,2.25,3.02,2.25,5.15s-.87,3.98-2.61,5.27c-1.74,1.29-4.04,1.93-6.89,1.93s-5.2-.7-7.2-2.09c-2.01-1.39-2.98-3.47-2.92-6.23l.04-.11h5.05c0,1.54.45,2.67,1.36,3.39.9.73,2.13,1.09,3.68,1.09,1.39,0,2.46-.29,3.19-.87.73-.58,1.1-1.36,1.1-2.34"></path>
        <rect class="cls-1" x="176.1" y="86.01" width="20.92" height="4.02"></rect>
        <rect class="cls-1" x="141.15" y="86.01" width="20.92" height="4.02"></rect>
        <rect class="cls-1" x="106.19" y="86.01" width="20.92" height="4.02"></rect>
        <rect class="cls-1" x="69.91" y="86.01" width="20.92" height="4.02"></rect>
        <rect class="cls-1" x="34.95" y="86.01" width="20.92" height="4.02"></rect>
        <rect class="cls-1" x="0" y="86.01" width="20.92" height="4.02"></rect>
        <path class="cls-4" d="M468.96,31.18l-6.52-28.75h0c-.05-.24-.14-.46-.23-.67-.02-.05-.05-.1-.07-.15-.21-.41-.49-.75-.83-1.02-.04-.03-.08-.06-.13-.09-.17-.12-.36-.23-.55-.31,0,0,0,0,0,0-.15-.06-.3-.1-.45-.13-.16-.03-.32-.05-.48-.05h-4.63c-.36,0-.71.09-1.04.23-.25.11-.49.26-.7.45-.49.43-.85,1.04-1.01,1.75l-7.63,33.7c7.04-2.05,15.11-3.79,24.29-4.94"></path>
        <path class="cls-4" d="M442.19,47.05c5.55.78,18.78,5.24,32.64,10.01l-3.72-16.39c-8.95.48-20.41,3.46-28.92,6.38"></path>
        <path class="cls-4" d="M439.38,59.46l-3.34,14.74-.34,1.49-1.01,4.47s0,.01,0,.02c-.05.24-.09.49-.11.74,0,.06,0,.11-.01.17,0,0,0,0,0,0,0,.14-.01.28,0,.42,0,.08,0,.17,0,.25,0,0,0,0,0,0,0,.11.02.22.03.34.01.09.02.19.04.28,0,0,0,0,0,0,.08.43.2.85.38,1.25,0,0,0,0,0,0,.06.13.12.27.19.39t0,0c.04.07.08.13.12.2,0,0,0,.01.01.02.04.07.08.13.12.2.01.02.03.05.04.07.12.18.25.34.39.5.42.48.92.95,1.45,1.43.22.2.44.4.68.6,0,0,0,0,0,0,.03.02.05.05.08.07.57.46,1.19.91,1.87,1.34,2.7,1.72,6.35,3.18,11.23,3.86.02,0,.04,0,.06,0h0c1.17.16,2.4.28,3.71.34h0c.15,0,.29.01.44.02h0c.64.03,1.3.04,1.98.04.76,0,1.49-.02,2.2-.05.05,0,.09,0,.14,0h0c3.16-.15,5.92-.59,8.31-1.24,3.43-.93,6.11-2.27,8.22-3.73,0,0,0,0,0,0,.1-.07.2-.13.3-.2h0c.18-.13.35-.26.52-.39,0,0,0,0,0,0,.17-.13.34-.26.5-.39h0c.28-.22.54-.45.79-.67.12-.11.25-.22.37-.33.08-.08.15-.17.23-.25.46-.5.8-1.09,1.03-1.74.04-.11.08-.21.11-.33.04-.15.08-.31.11-.47,0,0,0,0,0,0,.06-.32.09-.65.1-.98,0-.01,0-.03,0-.04h0c0-.14,0-.28-.02-.43h0s0-.02,0-.02c0-.05,0-.1,0-.15-.02-.24-.06-.47-.11-.71l-1.08-4.77-.36-1.59-.03-.12c-9.96-6.16-23.19-12.35-39.16-15.37l-.16.7Z"></path>
        <path class="cls-1" d="M497.83,89.29l-13.83-10.88.29,1.27s.01.06.01.09c.08.38.15.77.18,1.15,0,.05,0,.1,0,.16.01.17.01.33.02.5,0,.15.02.31.01.46,0,.14,0,.27-.02.41,0,.07-.01.14-.02.21-.01.17-.03.35-.05.52-.02.14-.03.27-.06.41-.06.33-.13.66-.22.99-.23.8-.55,1.56-.97,2.27,0,0,0,.02-.01.02-.19.32-.41.63-.64.92-.03.03-.05.07-.07.11-.26.32-.54.63-.85.92,0,0-.02.02-.03.02-.18.17-.37.34-.56.5-.16.14-.33.29-.5.43-.1.09-.21.17-.31.25-.03.02-.05.04-.08.06-.25.2-.51.4-.78.59-.39.29-.79.57-1.2.84,0,0,0,0,0,0-.08.05-.16.11-.24.16-.32.2-.64.4-.97.59-.03.02-.06.04-.09.06-.02.01-.04.03-.07.04-.48.28-.98.54-1.48.79-.23.12-.47.23-.72.35-.25.12-.51.23-.76.34-1.61.71-3.43,1.34-5.46,1.84h0c-.39.1-.79.19-1.19.27-.15.03-.3.06-.46.1-.14.03-.29.06-.43.09-.03,0-.06.01-.08.02-.04,0-.08.02-.12.03-.73.14-1.49.25-2.28.36-.29.04-.58.07-.88.1-.62.07-1.26.13-1.92.17-.28.02-.55.04-.84.06-.32.02-.65.03-.98.04-.6.02-1.2.04-1.83.04-.71,0-1.4-.02-2.08-.05-.21,0-.42-.01-.62-.02-.31-.02-.61-.04-.91-.06-.56-.04-1.11-.08-1.65-.14-.09,0-.17-.02-.26-.03-.27-.03-.55-.06-.81-.1-.46-.06-.9-.12-1.34-.2-.38-.06-.76-.12-1.12-.19-.41-.08-.8-.17-1.2-.26,0,0,0,0,0,0-.62-.14-1.23-.29-1.82-.46,0,0,0,0,0,0-.36-.1-.73-.2-1.07-.31-.38-.12-.75-.25-1.11-.38-.3-.11-.59-.22-.88-.33-.23-.09-.45-.18-.68-.28-.12-.05-.24-.1-.36-.15-.48-.21-.94-.43-1.38-.65,0,0-.01,0-.02,0-.3-.15-.6-.31-.89-.48,0,0,0,0,0,0-.35-.19-.7-.39-1.03-.59-.25-.15-.51-.31-.75-.46-.03-.02-.05-.04-.08-.05-.35-.23-.69-.47-1.01-.7-.08-.06-.15-.11-.22-.17-.26-.2-.52-.4-.76-.6-.41-.34-.8-.68-1.16-1.02-.09-.09-.18-.17-.27-.26-.19-.19-.38-.37-.56-.56-.2-.2-.39-.41-.57-.61h0s0,0,0,0c-.26-.29-.5-.6-.72-.92-.12-.17-.22-.36-.33-.54-.07-.12-.15-.23-.22-.36-.08-.15-.14-.3-.21-.45-.01-.02-.02-.05-.03-.07-.07-.15-.14-.3-.2-.45-.07-.16-.12-.33-.18-.5-.06-.17-.11-.34-.16-.51-.05-.17-.09-.35-.13-.52-.01-.05-.02-.1-.03-.15-.03-.13-.05-.25-.07-.38-.03-.17-.05-.34-.07-.52-.01-.1-.01-.19-.02-.29,0-.1-.02-.2-.02-.29,0-.16-.02-.32-.02-.49,0-.23.01-.45.03-.68,0-.13.01-.26.03-.4.04-.36.1-.73.18-1.09l.15-.68.04-.19h0s-13.73,10.81-13.73,10.81c-.18.14-.35.29-.51.45-.32.32-.59.66-.82,1.03-1.25,2.01-1.12,4.65.37,6.53.27.34.59.66.95.95l19.01,14.95,4.88,3.84,13.06,10.27c.26.2.53.38.81.53.85.46,1.78.69,2.71.69.03,0,.05,0,.08,0,1.22-.02,2.44-.42,3.45-1.21l36.8-28.95c2.9-2.28,2.9-6.68,0-8.96"></path>
        <path class="cls-4" d="M437.44,38.46l-8.17-36.03c-.24-1.07-.94-1.9-1.82-2.25-.29-.12-.61-.18-.93-.18h-4.63c-.65,0-1.26.25-1.74.68-.49.43-.85,1.04-1.01,1.75l-11.97,52.85c4.28-3.78,13.91-11.01,30.28-16.82"></path>
        <path class="cls-4" d="M432.27,71.73l3.1-13.67c-8.82-1.32-18.43-1.63-28.73-.46l-3.76,16.61-19.01,14.96c-1.45,1.14-2.18,2.81-2.18,4.48s.73,3.34,2.18,4.48l36.95,29.07c2.07,1.63,4.98,1.63,7.05,0l9.64-7.59-23.09-18.17c-2.41-1.89-3.79-4.74-3.79-7.8s1.38-5.91,3.79-7.8l17.85-14.12Z"></path>
      </g>
    </g>
  </g>
</svg>